<?xml version="1.0" encoding="UTF-8"?>
<svg version="1.1" xmlns="http://www.w3.org/2000/svg" width="515" height="484">
<path d="M0 0 C0.74725342 0.31275879 1.49450684 0.62551758 2.2644043 0.94775391 C8.26808678 3.48398398 14.17272758 6.20648475 20.0625 8.99609375 C30.78551439 14.06244727 41.66065259 18.8139595 52.5 23.625 C54.76886096 24.63297833 57.03757359 25.64128902 59.30615234 26.64990234 C61.35308294 27.55968957 63.40033369 28.46875657 65.44775391 29.37744141 C68.60177235 30.77770601 71.754051 32.18183927 74.9055481 33.58776855 C76.74782644 34.40868168 78.59153955 35.22637258 80.43530273 36.04394531 C87.72786799 39.30069249 94.8899903 42.73659719 102.00048828 46.36865234 C105.46483439 48.07292722 108.98196636 49.4780621 112.5859375 50.8515625 C115.41824291 52.02201048 118.09349286 53.39919022 120.8125 54.8125 C126.39093116 57.67397505 132.07921333 59.74872025 138.03125 61.69921875 C140.98115602 62.84344776 142.79783173 63.69213368 145.0625 65.875 C145.56027794 68.38867569 145.56027794 68.38867569 145.55697632 71.44976807 C145.5653653 72.61019623 145.57375427 73.77062439 145.58239746 74.96621704 C145.57115845 76.24096893 145.55991943 77.51572083 145.54833984 78.82910156 C145.5504858 80.18450283 145.55436363 81.53990231 145.55984497 82.89529419 C145.5695545 86.58213701 145.5542067 90.26849681 145.53393888 93.95528126 C145.51635409 97.82400259 145.51989353 101.69270925 145.5206604 105.5614624 C145.51878535 112.07165574 145.50140968 118.58166307 145.47412109 125.09179688 C145.4428264 132.58458818 145.43211942 140.07717466 145.4335922 147.57002664 C145.43495254 155.57527846 145.4210001 163.58045275 145.40269899 171.58568096 C145.39846658 173.87489564 145.39702068 176.16409752 145.39622116 178.45331573 C145.39418477 182.08130534 145.38175647 185.70912852 145.36188889 189.33706284 C145.35342434 191.27717122 145.35436766 193.21731384 145.35577393 195.15744019 C145.27237456 206.83404128 144.16388398 218.50313075 140.875 229.75 C140.55245239 230.86942993 140.55245239 230.86942993 140.22338867 232.01147461 C133.39008412 254.92172497 121.26691137 274.16916757 106.04296875 292.46484375 C104.06240653 294.81561594 104.06240653 294.81561594 102.42578125 297.19140625 C101.97589844 297.74699219 101.52601563 298.30257813 101.0625 298.875 C100.4025 298.875 99.7425 298.875 99.0625 298.875 C99.0625 299.535 99.0625 300.195 99.0625 300.875 C98.4025 300.875 97.7425 300.875 97.0625 300.875 C96.80509033 301.45620605 96.54768066 302.03741211 96.2824707 302.63623047 C94.05514515 306.72359796 90.52602229 309.73856374 87.25 313 C86.53779297 313.72832031 85.82558594 314.45664062 85.09179688 315.20703125 C84.39505859 315.90441406 83.69832031 316.60179687 82.98046875 317.3203125 C82.34906982 317.95469238 81.7176709 318.58907227 81.06713867 319.24267578 C78.84482911 321.05224364 76.7590578 321.94491088 74.0625 322.875 C74.0625 323.535 74.0625 324.195 74.0625 324.875 C73.4025 324.875 72.7425 324.875 72.0625 324.875 C72.0625 325.535 72.0625 326.195 72.0625 326.875 C70.30386092 328.23909223 68.47546542 329.51333645 66.625 330.75 C65.41843899 331.56256826 64.21275196 332.37643536 63.0078125 333.19140625 C62.36360352 333.62598145 61.71939453 334.06055664 61.05566406 334.50830078 C59.05346527 335.88119505 57.08261526 337.28988443 55.1171875 338.71484375 C47.47437829 344.24616188 39.71412106 349.45205464 31.625 354.3125 C30.82118896 354.79630127 30.01737793 355.28010254 29.18920898 355.77856445 C24.40748443 358.61001057 19.54729124 361.17832336 14.55981445 363.62719727 C12.067619 364.87244225 9.62033342 366.17953174 7.17578125 367.515625 C6.38236328 367.94617188 5.58894531 368.37671875 4.77148438 368.8203125 C3.15821114 369.69860632 1.54888041 370.58417651 -0.05664062 371.4765625 C-4.66062957 373.95707899 -8.5867471 375.94829798 -13.9375 375.875 C-16.82627347 374.86590537 -19.36836103 373.42341614 -22 371.875 C-23.50686952 371.02956706 -25.01469625 370.18583814 -26.5234375 369.34375 C-27.64057129 368.71146484 -27.64057129 368.71146484 -28.78027344 368.06640625 C-31.84021048 366.37644555 -34.97174767 364.88400563 -38.125 363.375 C-44.23178216 360.35670537 -49.83486241 356.86397614 -55.48828125 353.0859375 C-57.97749981 351.44374724 -60.52157661 349.99677301 -63.1484375 348.5859375 C-68.78900922 345.49346922 -73.99523154 341.82478152 -79.25 338.125 C-80.25877197 337.41778809 -81.26754395 336.71057617 -82.30688477 335.98193359 C-99.59033101 323.82626728 -99.59033101 323.82626728 -102.9375 320.875 C-102.9375 320.215 -102.9375 319.555 -102.9375 318.875 C-103.48792969 318.64039063 -104.03835937 318.40578125 -104.60546875 318.1640625 C-111.76847317 314.20461282 -117.95553023 307.15990626 -123.18359375 300.94921875 C-125.97732387 297.64527511 -128.91323669 294.47006037 -131.82421875 291.26953125 C-137.9375 284.3426525 -137.9375 284.3426525 -137.9375 281.875 C-138.5975 281.875 -139.2575 281.875 -139.9375 281.875 C-142.06481464 279.15070578 -143.73674297 276.09407794 -145.5 273.125 C-146.30147461 271.78127319 -146.30147461 271.78127319 -147.11914062 270.41040039 C-152.49108503 261.21888799 -156.86065907 251.69710718 -160.9375 241.875 C-161.37835938 240.85148438 -161.81921875 239.82796875 -162.2734375 238.7734375 C-168.85006159 222.40604972 -168.99384003 203.99205037 -169.125 186.625 C-169.13813232 185.50416016 -169.15126465 184.38332031 -169.16479492 183.22851562 C-169.16584229 182.17857422 -169.16688965 181.12863281 -169.16796875 180.046875 C-169.17207764 179.0990918 -169.17618652 178.15130859 -169.18041992 177.17480469 C-168.9375 174.875 -168.9375 174.875 -166.9375 172.875 C-164.70678711 172.63208008 -164.70678711 172.63208008 -161.96484375 172.64453125 C-160.49241211 172.64743164 -160.49241211 172.64743164 -158.99023438 172.65039062 C-157.44819336 172.66875977 -157.44819336 172.66875977 -155.875 172.6875 C-154.84310547 172.68814453 -153.81121094 172.68878906 -152.74804688 172.68945312 C-145.07765997 172.73484003 -145.07765997 172.73484003 -143.9375 173.875 C-143.77747899 176.53903582 -143.67799495 179.18081257 -143.62109375 181.84765625 C-143.60244263 182.55434448 -143.5837915 183.26103271 -143.5645752 183.98913574 C-143.49608389 186.63845879 -143.43605902 189.28799524 -143.375 191.9375 C-143.230625 197.856875 -143.08625 203.77625 -142.9375 209.875 C-126.4375 209.875 -109.9375 209.875 -92.9375 209.875 C-92.9375 206.575 -92.9375 203.275 -92.9375 199.875 C-94.05125 199.91625 -95.165 199.9575 -96.3125 200 C-99.9375 199.875 -99.9375 199.875 -101.9375 197.875 C-102.18041992 195.1003418 -102.18041992 195.1003418 -102.16796875 191.57421875 C-102.16603516 190.28580078 -102.16410156 188.99738281 -102.16210938 187.66992188 C-102.15590576 186.99372803 -102.14970215 186.31753418 -102.14331055 185.62084961 C-102.12541036 183.60862948 -102.12403475 181.59628388 -102.12304688 179.58398438 C-102.018138 156.02611338 -102.018138 156.02611338 -98.25 147.125 C-97.98525879 146.49867676 -97.72051758 145.87235352 -97.44775391 145.22705078 C-95.16700237 140.00947801 -92.3713982 135.39745382 -88.9375 130.875 C-88.339375 129.988125 -87.74125 129.10125 -87.125 128.1875 C-80.35469237 121.03031765 -70.4675418 115.83330635 -60.56565857 115.38725281 C-58.6173031 115.37282736 -56.66870511 115.37984696 -54.72045898 115.4050293 C-53.64771225 115.4028389 -52.57496552 115.4006485 -51.4697113 115.39839172 C-47.95734866 115.39609758 -44.44584321 115.42223193 -40.93359375 115.44921875 C-38.48405727 115.45414595 -36.03451701 115.45744268 -33.5849762 115.45918274 C-28.47018267 115.4667998 -23.35567129 115.48729971 -18.2409668 115.51831055 C-11.6700082 115.55807259 -5.09923204 115.57595189 1.47183323 115.58561993 C7.73254911 115.59556264 13.99322008 115.615459 20.25390625 115.63671875 C21.45410463 115.6401145 22.65430302 115.64351025 23.89087105 115.6470089 C27.26397262 115.6585215 30.63695538 115.67702784 34.01000977 115.69799805 C35.01928528 115.70068695 36.02856079 115.70337585 37.06842041 115.70614624 C37.98090042 115.71330154 38.89338043 115.72045685 39.83351135 115.72782898 C40.6307792 115.73210246 41.42804705 115.73637594 42.24947453 115.74077892 C44.0625 115.875 44.0625 115.875 45.0625 116.875 C45.17582093 119.44519485 45.22667485 121.98751477 45.23046875 124.55859375 C45.23379715 125.32929703 45.23712555 126.10000031 45.24055481 126.89405823 C45.2456271 128.52742921 45.24796304 130.1608106 45.24780273 131.79418945 C45.2499878 134.29851299 45.26813595 136.80239521 45.28710938 139.30664062 C45.29004347 140.89062349 45.29202816 142.47460845 45.29296875 144.05859375 C45.30015427 144.8107164 45.30733978 145.56283905 45.31474304 146.3377533 C45.29132279 151.64617721 45.29132279 151.64617721 43.0625 153.875 C40.01065261 154.07731783 37.04795594 154.15496388 33.99462891 154.14624023 C33.05466568 154.15146698 32.11470245 154.15669373 31.14625549 154.16207886 C29.10061951 154.17233792 27.05495728 154.17810257 25.00929642 154.17996025 C21.77343709 154.18361138 18.53788772 154.20030362 15.30209351 154.22071838 C6.10054276 154.27625114 -3.10105422 154.30683013 -12.30273438 154.33129883 C-17.92667149 154.3471578 -23.55038959 154.37736145 -29.17421341 154.41606331 C-31.32002058 154.42773029 -33.4658669 154.43364381 -35.61170578 154.43374443 C-38.61165016 154.43393609 -41.61098926 154.4521746 -44.61083984 154.47436523 C-45.50033829 154.46978806 -46.38983673 154.46521088 -47.30628967 154.460495 C-51.83894694 154.513904 -54.51261018 154.59918788 -57.9375 157.875 C-58.5975 157.875 -59.2575 157.875 -59.9375 157.875 C-61.72917874 162.29447423 -63.05995588 165.897675 -63.0793457 170.69091797 C-63.08638016 171.66978973 -63.09341461 172.6486615 -63.10066223 173.65719604 C-63.10690865 175.24614182 -63.10690865 175.24614182 -63.11328125 176.8671875 C-63.13650199 179.12240494 -63.1606202 181.37761327 -63.18554688 183.6328125 C-63.22047561 187.17844529 -63.24989984 190.72374837 -63.26342773 194.26953125 C-63.41169284 226.78749084 -63.41169284 226.78749084 -73.9375 237.875 C-74.52402344 238.50148438 -75.11054688 239.12796875 -75.71484375 239.7734375 C-80.79437543 244.69715533 -86.20065005 246.92926383 -92.9375 248.875 C-93.78344727 249.13518921 -93.78344727 249.13518921 -94.64648438 249.40063477 C-97.80685711 250.05500436 -100.88405203 250.09887649 -104.109375 250.19140625 C-104.7917926 250.21218735 -105.47421021 250.23296844 -106.17730713 250.25437927 C-108.34727356 250.31952052 -110.51735624 250.37859404 -112.6875 250.4375 C-114.16277221 250.48071897 -115.63803287 250.52433432 -117.11328125 250.56835938 C-120.72123166 250.67516518 -124.32931133 250.77653153 -127.9375 250.875 C-126.66911177 252.95985667 -125.39789242 255.04289576 -124.125 257.125 C-123.76857422 257.71152344 -123.41214844 258.29804688 -123.04492188 258.90234375 C-121.51625153 261.39870449 -119.98956607 263.80896498 -118.17578125 266.109375 C-116.9375 267.875 -116.9375 267.875 -116.9375 270.875 C-116.2775 270.875 -115.6175 270.875 -114.9375 270.875 C-113.0625 272.921875 -113.0625 272.921875 -110.9375 275.625 C-109.885625 276.94757813 -109.885625 276.94757813 -108.8125 278.296875 C-106.9375 280.875 -106.9375 280.875 -105.9375 283.078125 C-104.63752196 285.41402305 -103.34530558 285.78533616 -100.9375 286.875 C-99.48601225 287.99804892 -98.0692824 289.16721983 -96.6875 290.375 C-95.98109375 290.9834375 -95.2746875 291.591875 -94.546875 292.21875 C-92.9375 293.875 -92.9375 293.875 -92.9375 295.875 C-92.39351563 296.11089844 -91.84953125 296.34679687 -91.2890625 296.58984375 C-88.31282215 298.21639371 -85.90880358 300.25758473 -83.3125 302.4375 C-79.82683319 305.46232256 -79.82683319 305.46232256 -75.9375 307.875 C-75.9375 308.535 -75.9375 309.195 -75.9375 309.875 C-75.174375 310.16375 -74.41125 310.4525 -73.625 310.75 C-70.9375 311.875 -70.9375 311.875 -67.9375 313.875 C-67.9375 314.535 -67.9375 315.195 -67.9375 315.875 C-67.21175781 316.143125 -66.48601562 316.41125 -65.73828125 316.6875 C-62.96228847 317.86448996 -60.6443405 319.22453441 -58.125 320.875 C-57.16980469 321.49246094 -56.21460938 322.10992187 -55.23046875 322.74609375 C-54.14378906 323.44863281 -53.05710937 324.15117187 -51.9375 324.875 C-43.09040787 330.52115712 -34.21497236 335.95766104 -24.9375 340.875 C-22.07280141 342.47276496 -19.20823707 344.07065416 -16.34765625 345.67578125 C-12.33223404 347.72463668 -12.33223404 347.72463668 -8.02490234 347.24511719 C-7.36441895 346.89094727 -6.70393555 346.53677734 -6.0234375 346.171875 C-5.27191406 345.77444092 -4.52039063 345.37700684 -3.74609375 344.9675293 C-2.94300781 344.52449463 -2.13992188 344.08145996 -1.3125 343.625 C-0.47074219 343.16971924 0.37101563 342.71443848 1.23828125 342.24536133 C24.3776619 329.59263385 47.22636981 315.0120165 66.609375 297.01953125 C68.0625 295.875 68.0625 295.875 70.0625 295.875 C70.0625 295.215 70.0625 294.555 70.0625 293.875 C70.7225 293.875 71.3825 293.875 72.0625 293.875 C72.0625 293.215 72.0625 292.555 72.0625 291.875 C72.7225 291.875 73.3825 291.875 74.0625 291.875 C74.0625 291.215 74.0625 290.555 74.0625 289.875 C74.7225 289.875 75.3825 289.875 76.0625 289.875 C76.0625 289.215 76.0625 288.555 76.0625 287.875 C76.7225 287.875 77.3825 287.875 78.0625 287.875 C78.0625 287.215 78.0625 286.555 78.0625 285.875 C79.9375 283.75 79.9375 283.75 82.0625 281.875 C82.7225 281.875 83.3825 281.875 84.0625 281.875 C84.28679687 281.35679687 84.51109375 280.83859375 84.7421875 280.3046875 C86.56143938 276.95683345 88.88973795 274.02666172 91.1875 271 C112.40488794 242.46734785 119.41781405 214.74952154 119.26528788 179.6182065 C119.25264797 176.20831898 119.25159971 172.79842662 119.24923706 169.38851929 C119.24306076 162.95387109 119.22670301 156.51929216 119.20653808 150.08467424 C119.18405804 142.74955336 119.17315545 135.41442889 119.16314721 128.07928205 C119.1423326 113.01114967 119.10723289 97.94308182 119.0625 82.875 C118.49624405 82.62232864 117.9299881 82.36965729 117.34657288 82.10932922 C114.74193415 80.94583502 112.13854167 79.77957694 109.53515625 78.61328125 C108.64461548 78.21596802 107.75407471 77.81865479 106.83654785 77.40930176 C101.65301789 75.08450225 96.55108646 72.66270271 91.5 70.0625 C83.14943984 65.79782901 74.56983548 62.07517732 65.98754883 58.30419922 C59.17306399 55.2970109 52.47748858 52.15927744 45.85986328 48.74438477 C39.61630662 45.56309676 33.1723582 42.8824803 26.71533203 40.16821289 C20.42502563 37.50790621 14.37318553 34.57241889 8.30078125 31.4453125 C3.80590766 29.26565124 -0.79356093 27.5305725 -5.48828125 25.8203125 C-7.9375 24.875 -7.9375 24.875 -8.9375 23.875 C-13.54419997 23.3160989 -16.91855274 24.99702616 -20.9375 27 C-22.27200208 27.64350575 -23.60664007 28.28672971 -24.94140625 28.9296875 C-25.60930176 29.25549805 -26.27719727 29.58130859 -26.96533203 29.91699219 C-29.9201546 31.35233803 -32.8956715 32.74136786 -35.875 34.125 C-37.34259766 34.81335938 -37.34259766 34.81335938 -38.83984375 35.515625 C-41.17396324 36.53992964 -43.47217354 37.45212985 -45.86328125 38.3203125 C-49.78626631 39.76799773 -53.48021323 41.57379235 -57.1875 43.5 C-68.54691219 49.27967966 -80.20673176 54.38486101 -91.890625 59.46875 C-103.94461877 64.72115297 -115.87959905 70.14995587 -127.70385742 75.90356445 C-128.6807251 76.37882568 -129.65759277 76.85408691 -130.6640625 77.34375 C-131.51564941 77.76076172 -132.36723633 78.17777344 -133.24462891 78.60742188 C-136.4418708 80.11241552 -139.68718748 81.48892881 -142.9375 82.875 C-142.94780746 83.77400528 -142.95811493 84.67301056 -142.96873474 85.59925842 C-143.06687749 94.08835495 -143.16941517 102.57738471 -143.27683926 111.06636906 C-143.33190789 115.43020779 -143.38530134 119.7940534 -143.43481445 124.15795898 C-143.48269597 128.37255323 -143.53504575 132.58707084 -143.59044075 136.8015728 C-143.61075702 138.40622476 -143.62948706 140.01089764 -143.64657402 141.61558723 C-143.67085734 143.87018482 -143.7008766 146.12464077 -143.73217773 148.37915039 C-143.74772202 149.66044327 -143.7632663 150.94173615 -143.77928162 152.26185608 C-144.21227012 162.14977012 -144.21227012 162.14977012 -145.9375 163.875 C-149.40958807 164.12598924 -152.8949062 164.06022096 -156.375 164.0625 C-157.35533203 164.07474609 -158.33566406 164.08699219 -159.34570312 164.09960938 C-160.28220703 164.10154297 -161.21871094 164.10347656 -162.18359375 164.10546875 C-163.47801392 164.11163208 -163.47801392 164.11163208 -164.79858398 164.11791992 C-166.9375 163.875 -166.9375 163.875 -168.9375 161.875 C-169.13114349 158.87240841 -169.19964284 155.96235834 -169.18041992 152.95898438 C-169.18231827 152.0353157 -169.18421661 151.11164703 -169.18617249 150.1599884 C-169.1898877 147.09615688 -169.17916542 144.03256058 -169.16796875 140.96875 C-169.16677725 138.84647652 -169.16632372 136.72420251 -169.1665802 134.60192871 C-169.16501404 130.14978748 -169.15671429 125.69772651 -169.14331055 121.24560547 C-169.12632054 115.52872301 -169.12249614 109.81192885 -169.12325573 104.09502411 C-169.12298425 99.71139681 -169.11750653 95.32778894 -169.11025429 90.94416809 C-169.10706424 88.83576098 -169.10509943 86.72735166 -169.10436058 84.61894226 C-169.10220058 81.67626161 -169.09346367 78.73367598 -169.08276367 75.79101562 C-169.08321686 74.91302811 -169.08367004 74.03504059 -169.08413696 73.13044739 C-169.05197632 67.10395264 -169.05197632 67.10395264 -167.9375 64.875 C-165.32553511 63.69396348 -162.72841028 62.6073899 -160.0625 61.5625 C-158.48769398 60.9298453 -156.91347297 60.2957324 -155.33984375 59.66015625 C-154.57526855 59.35223145 -153.81069336 59.04430664 -153.02294922 58.72705078 C-149.64789214 57.34810566 -146.34290485 55.83242351 -143.03515625 54.30078125 C-140.54951313 53.15669583 -138.05775734 52.03193907 -135.55859375 50.91796875 C-126.62788699 46.93351329 -117.75198195 42.86102442 -108.9375 38.625 C-102.61083786 35.58563111 -96.27651309 32.68659188 -89.765625 30.05859375 C-86.56399845 28.71868651 -83.44574541 27.24285796 -80.3125 25.75 C-73.27883039 22.40623222 -66.11873063 19.38638491 -58.9375 16.375 C-49.49332273 12.41154861 -40.17962568 8.28651584 -30.9375 3.875 C-27.51207575 2.28350089 -24.07712128 0.71268776 -20.64453125 -0.86328125 C-18.00755112 -2.02768602 -18.00755112 -2.02768602 -15.94921875 -3.35546875 C-10.70813128 -5.36031192 -4.85268043 -2.06167989 0 0 Z " fill="#EE7521" transform="translate(271.9375,53.125)"/>
<path d="M0 0 C3.00777188 0.29952569 3.89772211 0.87911649 5.88427734 3.22705078 C6.5283252 4.20657715 7.17237305 5.18610352 7.8359375 6.1953125 C8.56409668 7.29302979 9.29225586 8.39074707 10.04248047 9.52172852 C10.82067826 10.72237124 11.59816915 11.92347239 12.375 13.125 C13.17678232 14.34918083 13.97903301 15.57305502 14.78173828 16.79663086 C19.91544306 24.65284847 24.94820867 32.57494455 29.875 40.5625 C30.43880371 41.4695166 31.00260742 42.3765332 31.58349609 43.31103516 C39.3228399 56.0647351 43.0329 68.48785411 39.8046875 83.45703125 C38.10320124 88.83405821 35.10458181 93.34312728 32 98 C31.34 98 30.68 98 30 98 C30 98.66 30 99.32 30 100 C29.34 100 28.68 100 28 100 C28 100.66 28 101.32 28 102 C19.40052529 110.3220723 8.6210141 111.30616231 -2.796875 111.13671875 C-12.54211168 110.72076353 -18.60037578 107.4673881 -26 101 C-30 96.46218487 -30 96.46218487 -30 94 C-30.66 94 -31.32 94 -32 94 C-36.94604043 83.64782235 -38.82936292 72.96705917 -35.94140625 61.6171875 C-31.80397339 50.11478078 -25.07744362 39.41581799 -19.03857422 28.83349609 C-16.63380015 24.58811452 -14.31909535 20.29260003 -12 16 C-11.34 16 -10.68 16 -10 16 C-9.75507813 15.29488281 -9.51015625 14.58976563 -9.2578125 13.86328125 C-7.82532472 10.60236963 -6.00478131 8.03865885 -3.875 5.1875 C-3.15054688 4.21167969 -2.42609375 3.23585937 -1.6796875 2.23046875 C-1.12539063 1.49441406 -0.57109375 0.75835937 0 0 Z " fill="#F17721" transform="translate(272,229)"/>
<path d="M0 0 C1.58071289 -0.01836914 1.58071289 -0.01836914 3.19335938 -0.03710938 C4.20333984 -0.03904297 5.21332031 -0.04097656 6.25390625 -0.04296875 C7.17631104 -0.04707764 8.09871582 -0.05118652 9.04907227 -0.05541992 C11.4375 0.1875 11.4375 0.1875 14.4375 2.1875 C14.8117218 4.50256348 14.8117218 4.50256348 14.80981445 7.43164062 C14.81915764 9.07344299 14.81915764 9.07344299 14.82868958 10.74841309 C14.81947983 11.93487427 14.81027008 13.12133545 14.80078125 14.34375 C14.80127975 15.55695923 14.80177826 16.77016846 14.80229187 18.0201416 C14.7999479 20.58912796 14.79020057 23.15811646 14.77368164 25.72705078 C14.75009803 29.67110618 14.75311742 33.61448584 14.75976562 37.55859375 C14.75418898 40.04948322 14.74707918 42.54036983 14.73828125 45.03125 C14.73964836 46.81094177 14.73964836 46.81094177 14.74104309 48.62658691 C14.73151108 49.72112183 14.72197906 50.81565674 14.7121582 51.94335938 C14.70755081 52.90995483 14.70294342 53.87655029 14.69819641 54.87243652 C14.4375 57.1875 14.4375 57.1875 12.4375 59.1875 C9.7199547 59.52682433 7.10337291 59.75060081 4.375 59.875 C3.60728271 59.91407471 2.83956543 59.95314941 2.04858398 59.9934082 C-3.27587719 60.22505354 -8.30841062 60.20144707 -13.5625 59.1875 C-15.5625 57.1875 -15.5625 57.1875 -15.80300903 54.8210144 C-15.79856781 53.83062164 -15.79412659 52.84022888 -15.78955078 51.81982422 C-15.78939972 50.69881317 -15.78924866 49.57780212 -15.78909302 48.42282104 C-15.77877045 47.20821198 -15.76844788 45.99360291 -15.7578125 44.7421875 C-15.7549826 43.50203888 -15.75215271 42.26189026 -15.74923706 40.98416138 C-15.73992174 37.68625367 -15.7219489 34.38854028 -15.6998291 31.09069824 C-15.67937474 27.7258543 -15.67023623 24.36098193 -15.66015625 20.99609375 C-15.63806519 14.39315277 -15.60456483 7.79034229 -15.5625 1.1875 C-10.39178014 -0.19009977 -5.32783335 0.00327062 0 0 Z " fill="#ED7622" transform="translate(337.5625,157.8125)"/>
<path d="M0 0 C6.93 0 13.86 0 21 0 C22.125 11.25 22.125 11.25 22.09765625 16.8828125 C22.09443359 18.06875 22.09121094 19.2546875 22.08789062 20.4765625 C22.07951172 21.68054688 22.07113281 22.88453125 22.0625 24.125 C22.05798828 25.36765625 22.05347656 26.6103125 22.04882812 27.890625 C22.03714924 30.92713502 22.0207714 33.96354088 22 37 C19.72926921 38.1353654 18.45716721 38.12892412 15.9375 38.1328125 C15.14085937 38.13410156 14.34421875 38.13539063 13.5234375 38.13671875 C12.69070313 38.13285156 11.85796875 38.12898438 11 38.125 C9.75089844 38.13080078 9.75089844 38.13080078 8.4765625 38.13671875 C7.67992187 38.13542969 6.88328125 38.13414062 6.0625 38.1328125 C5.33160156 38.13168457 4.60070312 38.13055664 3.84765625 38.12939453 C2 38 2 38 0 37 C-1.70523647 28.9682296 -0.95982402 20.44622506 -0.5625 12.3125 C-0.51029297 11.12205078 -0.45808594 9.93160156 -0.40429688 8.70507812 C-0.27609651 5.80308794 -0.13898091 2.90149387 0 0 Z " fill="#EA721F" transform="translate(358,169)"/>
<path d="M0 0 C0.66 0.33 1.32 0.66 2 1 C1.67 32.68 1.34 64.36 1 97 C9.415 96.01 9.415 96.01 18 95 C18 93.02 18 91.04 18 89 C18.33 89 18.66 89 19 89 C19.33 65.57 19.66 42.14 20 18 C21.65 17.67 23.3 17.34 25 17 C24.89226379 26.52757611 24.77958378 36.05507739 24.66066074 45.58252048 C24.60558892 50.00689369 24.55219491 54.43127367 24.50268555 58.85571289 C24.45480879 63.12866114 24.4024591 67.40153369 24.34705925 71.67439079 C24.32674084 73.30137169 24.30801113 74.92837325 24.29092598 76.55539131 C24.26664747 78.841121 24.23662742 81.12671071 24.20532227 83.41235352 C24.18977798 84.71141129 24.1742337 86.01046906 24.15821838 87.34889221 C23.72821633 97.27178367 23.72821633 97.27178367 22 99 C18.52791193 99.25098924 15.0425938 99.18522096 11.5625 99.1875 C10.09200195 99.20586914 10.09200195 99.20586914 8.59179688 99.22460938 C7.65529297 99.22654297 6.71878906 99.22847656 5.75390625 99.23046875 C4.89095947 99.23457764 4.0280127 99.23868652 3.13891602 99.24291992 C1 99 1 99 -1 97 C-1.19364349 93.99740841 -1.26214284 91.08735834 -1.24291992 88.08398438 C-1.24481827 87.1603157 -1.24671661 86.23664703 -1.24867249 85.2849884 C-1.2523877 82.22115688 -1.24166542 79.15756058 -1.23046875 76.09375 C-1.22927725 73.97147652 -1.22882372 71.84920251 -1.2290802 69.72692871 C-1.22751404 65.27478748 -1.21921429 60.82272651 -1.20581055 56.37060547 C-1.18882054 50.65372301 -1.18499614 44.93692885 -1.18575573 39.22002411 C-1.18548425 34.83639681 -1.18000653 30.45278894 -1.17275429 26.06916809 C-1.16956424 23.96076098 -1.16759943 21.85235166 -1.16686058 19.74394226 C-1.16470058 16.80126161 -1.15596367 13.85867598 -1.14526367 10.91601562 C-1.14571686 10.03802811 -1.14617004 9.16004059 -1.14663696 8.25544739 C-1.11447632 2.22895264 -1.11447632 2.22895264 0 0 Z " fill="#924414" transform="translate(104,118)"/>
<path d="M0 0 C1.07274673 -0.0021904 2.14549347 -0.0043808 3.25074768 -0.00663757 C6.76311033 -0.00893172 10.27461577 0.01720263 13.78686523 0.04418945 C16.23640172 0.04911665 18.68594197 0.05241338 21.13548279 0.05415344 C26.25027631 0.0617705 31.3647877 0.08227041 36.47949219 0.11328125 C43.05045079 0.15304329 49.62122695 0.1709226 56.19229221 0.18059063 C62.4530081 0.19053334 68.71367906 0.2104297 74.97436523 0.23168945 C76.17456362 0.2350852 77.374762 0.23848095 78.61133003 0.2419796 C81.98443161 0.2534922 85.35741437 0.27199854 88.73046875 0.29296875 C89.73974426 0.29565765 90.74901978 0.29834656 91.78887939 0.30111694 C92.70135941 0.30827225 93.61383942 0.31542755 94.55397034 0.32279968 C95.35123818 0.32707316 96.14850603 0.33134665 96.96993351 0.33574963 C98.78295898 0.4699707 98.78295898 0.4699707 99.78295898 1.4699707 C99.89627991 4.04016555 99.94713384 6.58248548 99.95092773 9.15356445 C99.95592033 10.30961937 99.95592033 10.30961937 99.96101379 11.48902893 C99.96608609 13.12239992 99.96842203 14.7557813 99.96826172 16.38916016 C99.97044678 18.8934837 99.98859494 21.39736591 100.00756836 23.90161133 C100.01050246 25.48559419 100.01248714 27.06957915 100.01342773 28.65356445 C100.02061325 29.4056871 100.02779877 30.15780975 100.03520203 30.932724 C100.01178178 36.24114791 100.01178178 36.24114791 97.78295898 38.4699707 C94.76965892 38.65835425 91.84890856 38.72161513 88.83520508 38.69702148 C87.90832382 38.69731354 86.98144257 38.69760559 86.026474 38.69790649 C82.95302064 38.69650959 79.87980766 38.68093145 76.80639648 38.6652832 C74.67933281 38.66155435 72.55226742 38.65870678 70.42520142 38.65670776 C64.81916586 38.64906122 59.21323348 38.62940397 53.60723877 38.6072998 C47.88978471 38.58686334 42.17231402 38.57771076 36.45483398 38.56762695 C25.23083025 38.54615904 14.00690319 38.5120108 2.78295898 38.4699707 C3.11295898 37.8099707 3.44295898 37.1499707 3.78295898 36.4699707 C49.32295898 35.9749707 49.32295898 35.9749707 95.78295898 35.4699707 C96.11295898 24.5799707 96.44295898 13.6899707 96.78295898 2.4699707 C82.80503865 2.55546895 68.82724055 2.64921771 54.84947777 2.75749779 C48.35906487 2.8074464 41.86866814 2.85377679 35.37817383 2.8918457 C29.11465837 2.92871631 22.8512786 2.97508151 16.58787918 3.02803421 C14.19810999 3.04656864 11.80831173 3.0616801 9.41849899 3.07331467 C6.07158255 3.09019306 2.72497623 3.11923275 -0.62182617 3.15112305 C-2.10428833 3.15436333 -2.10428833 3.15436333 -3.61669922 3.15766907 C-8.56689347 3.21793386 -12.56408936 3.58635245 -17.21704102 5.4699707 C-18.87792146 5.83103167 -20.54323082 6.17459243 -22.21704102 6.4699707 C-20.56931456 3.17451779 -17.4258245 2.5921335 -14.09947395 1.32166481 C-9.38875684 -0.07024615 -4.88108263 -0.06309115 0 0 Z " fill="#9B4519" transform="translate(217.217041015625,168.530029296875)"/>
<path d="M0 0 C5.7690808 0.5958231 10.6183506 2.77124427 15.875 5.0625 C17.50257172 5.76534479 19.13035224 6.4677062 20.75830078 7.16967773 C22.17220052 7.77978516 23.58610026 8.38989258 25 9 C25.05123136 35.42434875 24.97244357 61.84467138 24.68261719 88.26757812 C24.64242958 91.97262658 24.60798584 95.67766661 24.578125 99.3828125 C24.54104757 103.98191482 24.49476195 108.5808391 24.44193649 113.17978668 C24.42367984 114.89390284 24.40847129 116.60805482 24.39665604 118.32222748 C24.3062091 130.91197796 24.06490134 143.25863781 19 155 C17.52220841 151.07215628 18.51438014 148.04520773 19.41918945 144.03540039 C21.93729614 131.29689489 21.37143622 118.35922306 21.29296875 105.43359375 C21.28567452 102.70020288 21.28294941 99.96681235 21.28010559 97.2334137 C21.2708585 90.82007289 21.24634655 84.40688933 21.21605712 77.99361712 C21.18228159 70.68020421 21.16596951 63.36678297 21.15097082 56.05331123 C21.11978846 41.03545389 21.06717431 26.01774283 21 11 C20.39937744 10.73783691 19.79875488 10.47567383 19.17993164 10.20556641 C16.4711281 9.01874249 13.76681206 7.82202068 11.0625 6.625 C10.11697266 6.2125 9.17144531 5.8 8.19726562 5.375 C7.29814453 4.97539062 6.39902344 4.57578125 5.47265625 4.1640625 C4.22367554 3.61419678 4.22367554 3.61419678 2.94946289 3.05322266 C1 2 1 2 0 0 Z " fill="#A24C10" transform="translate(370,125)"/>
<path d="M0 0 C1.58071289 -0.01836914 1.58071289 -0.01836914 3.19335938 -0.03710938 C4.20333984 -0.03904297 5.21332031 -0.04097656 6.25390625 -0.04296875 C7.17631104 -0.04707764 8.09871582 -0.05118652 9.04907227 -0.05541992 C11.4375 0.1875 11.4375 0.1875 14.4375 2.1875 C14.8117218 4.50256348 14.8117218 4.50256348 14.80981445 7.43164062 C14.81915764 9.07344299 14.81915764 9.07344299 14.82868958 10.74841309 C14.81947983 11.93487427 14.81027008 13.12133545 14.80078125 14.34375 C14.80127975 15.55695923 14.80177826 16.77016846 14.80229187 18.0201416 C14.7999479 20.58912796 14.79020057 23.15811646 14.77368164 25.72705078 C14.75009803 29.67110618 14.75311742 33.61448584 14.75976562 37.55859375 C14.75418898 40.04948322 14.74707918 42.54036983 14.73828125 45.03125 C14.73964836 46.81094177 14.73964836 46.81094177 14.74104309 48.62658691 C14.73151108 49.72112183 14.72197906 50.81565674 14.7121582 51.94335938 C14.70755081 52.90995483 14.70294342 53.87655029 14.69819641 54.87243652 C14.4375 57.1875 14.4375 57.1875 12.4375 59.1875 C9.7199547 59.52682433 7.10337291 59.75060081 4.375 59.875 C3.60728271 59.91407471 2.83956543 59.95314941 2.04858398 59.9934082 C-3.27587719 60.22505354 -8.30841062 60.20144707 -13.5625 59.1875 C-15.5625 57.1875 -15.5625 57.1875 -15.80300903 54.8210144 C-15.79856781 53.83062164 -15.79412659 52.84022888 -15.78955078 51.81982422 C-15.78939972 50.69881317 -15.78924866 49.57780212 -15.78909302 48.42282104 C-15.77877045 47.20821198 -15.76844788 45.99360291 -15.7578125 44.7421875 C-15.7549826 43.50203888 -15.75215271 42.26189026 -15.74923706 40.98416138 C-15.73992174 37.68625367 -15.7219489 34.38854028 -15.6998291 31.09069824 C-15.67937474 27.7258543 -15.67023623 24.36098193 -15.66015625 20.99609375 C-15.63806519 14.39315277 -15.60456483 7.79034229 -15.5625 1.1875 C-10.39178014 -0.19009977 -5.32783335 0.00327062 0 0 Z M-13.5625 2.1875 C-13.5625 20.3375 -13.5625 38.4875 -13.5625 57.1875 C-4.9825 57.1875 3.5975 57.1875 12.4375 57.1875 C12.4375 39.0375 12.4375 20.8875 12.4375 2.1875 C3.8575 2.1875 -4.7225 2.1875 -13.5625 2.1875 Z " fill="#75310C" transform="translate(337.5625,157.8125)"/>
<path d="M0 0 C1.41910652 0.25774371 2.83524899 0.53183165 4.25 0.8125 C5.03890625 0.96332031 5.8278125 1.11414063 6.640625 1.26953125 C9.40392391 2.12505591 10.90717992 2.99403888 13 5 C13.49498463 7.52764225 13.49498463 7.52764225 13.48774719 10.6084137 C13.49469101 11.77606766 13.50163483 12.94372162 13.50878906 14.14675903 C13.495979 15.42936615 13.48316895 16.71197327 13.4699707 18.03344727 C13.47047947 19.3969591 13.47273497 20.76047124 13.47660828 22.12397766 C13.4820366 25.83116071 13.46258631 29.53784558 13.43850732 33.24493909 C13.41721341 37.12933636 13.4178057 41.01373173 13.41581726 44.8981781 C13.40936375 51.42935752 13.388105 57.96035009 13.35668945 64.49145508 C13.31652495 72.85195679 13.29901841 81.21233623 13.28938007 89.57292271 C13.28104443 96.7786188 13.2638127 103.98428944 13.24434257 111.1899631 C13.24030437 112.73156878 13.23656319 114.27317526 13.2331202 115.81478238 C13.22326491 120.21909403 13.2086409 124.62333448 13.1862812 129.02760124 C13.17734069 130.98656938 13.17300652 132.94555688 13.16885376 134.90454102 C13.12812835 141.66275276 12.83990654 148.29168881 12 155 C11.67 155 11.34 155 11 155 C10.67 105.83 10.34 56.66 10 6 C9.34 5.67 8.68 5.34 8 5 C8 4.34 8 3.68 8 3 C5.36 2.67 2.72 2.34 0 2 C0 1.34 0 0.68 0 0 Z " fill="#863D13" transform="translate(404,114)"/>
<path d="M0 0 C4.29826101 3.93475462 6.93552729 9.12736839 9.9375 14.0625 C10.55818359 15.06216797 11.17886719 16.06183594 11.81835938 17.09179688 C19.90485756 30.34538655 24.18268028 42.79332501 20.8046875 58.45703125 C19.10320124 63.83405821 16.10458181 68.34312728 13 73 C12.34 73 11.68 73 11 73 C11 73.66 11 74.32 11 75 C10.34 75 9.68 75 9 75 C9 75.66 9 76.32 9 77 C5.59347128 80.20614467 2.48599743 81.74809374 -2 83 C-1.67 81.68 -1.34 80.36 -1 79 C0.65 79 2.3 79 4 79 C4 77.35 4 75.7 4 74 C5.98 74 7.96 74 10 74 C9.9175 73.0925 9.835 72.185 9.75 71.25 C10 68 10 68 11.875 65.625 C14 64 14 64 16 64 C18.93418957 50.76470918 19.3497484 35.09534796 12.22265625 23.28515625 C11.48917969 22.20105469 10.75570313 21.11695313 10 20 C8.63212479 17.85484204 7.28000665 15.70037568 5.93115234 13.54321289 C5.0373278 12.12722007 4.12805085 10.72083212 3.20166016 9.32592773 C0.92687134 5.84676119 0 4.26659215 0 0 Z " fill="#72320D" transform="translate(291,254)"/>
<path d="M0 0 C1.485 0.99 1.485 0.99 3 2 C3.40063477 4.48681641 3.40063477 4.48681641 3.44140625 7.6015625 C3.46783203 8.73207031 3.49425781 9.86257812 3.52148438 11.02734375 C3.53501953 12.21457031 3.54855469 13.40179688 3.5625 14.625 C3.6497756 24.40395863 3.6497756 24.40395863 5.51635742 33.93896484 C6.8230199 39.5072862 6.74613583 45.46043294 7.03515625 51.15625 C7.41872062 56.8880043 8.11268308 61.31241086 11.04858398 66.29956055 C12.57786303 69.03279856 13.23088867 71.98271711 14 75 C14.33 75.99 14.66 76.98 15 78 C15.66 78 16.32 78 17 78 C17 80.31 17 82.62 17 85 C-1.84975459 63.21414656 -0.43462114 26.64561908 0 0 Z " fill="#984B10" transform="translate(103,228)"/>
<path d="M0 0 C0 3 0 3 -0.98403931 5.37231445 C-2.05505689 8.14239939 -2.25102664 10.08985371 -2.25537109 13.04296875 C-2.26580948 14.5110498 -2.26580948 14.5110498 -2.27645874 16.00878906 C-2.27546173 17.05776367 -2.27446472 18.10673828 -2.2734375 19.1875 C-2.29374289 21.43620275 -2.31459396 23.68490062 -2.3359375 25.93359375 C-2.35842779 29.4572358 -2.3749677 32.98068427 -2.38085938 36.50439453 C-2.47252568 69.05968355 -2.47252568 69.05968355 -13 80 C-14.93768171 81.7967594 -16.89394223 83.39538456 -19 85 C-19 82 -19 82 -18 80 C-17.01 80 -16.02 80 -15 80 C-15 78.68 -15 77.36 -15 76 C-14.34 76 -13.68 76 -13 76 C-12.731875 75.443125 -12.46375 74.88625 -12.1875 74.3125 C-11 72 -11 72 -9.4375 69.625 C-6.0673346 63.47078492 -6.83505873 56.11724581 -6.7890625 49.28515625 C-6.76100219 46.96678971 -6.73233779 44.64843043 -6.703125 42.33007812 C-6.66184532 38.69181459 -6.62493629 35.05368765 -6.59863281 31.4152832 C-6.57098601 27.89246079 -6.52512654 24.37024419 -6.4765625 20.84765625 C-6.47330963 19.76517105 -6.47005676 18.68268585 -6.46670532 17.56739807 C-6.3705637 11.64107061 -5.97956851 7.18462473 -3 2 C-2.01 1.34 -1.02 0.68 0 0 Z " fill="#8A3F12" transform="translate(211,211)"/>
<path d="M0 0 C0.99 0 1.98 0 3 0 C3 0.66 3 1.32 3 2 C3.99 2.33 4.98 2.66 6 3 C6.11724724 22.7681652 6.20518959 42.53625901 6.25906086 62.30470085 C6.28474865 71.48531656 6.31971686 80.66571514 6.37719727 89.84619141 C6.42732308 97.85590656 6.45935934 105.86546433 6.47044247 113.875332 C6.47691234 118.1093154 6.49191666 122.3428489 6.52865028 126.57668686 C6.81181505 160.47091543 6.81181505 160.47091543 1 175 C0.67 175 0.34 175 0 175 C0.08874259 172.56110871 0.19579491 170.12509507 0.3125 167.6875 C0.33505859 167.01654297 0.35761719 166.34558594 0.38085938 165.65429688 C0.59211981 161.56352661 1.25382024 158.02630383 2.51069641 154.12406921 C4.42870523 147.21788349 4.39897842 140.56812053 4.34057617 133.44067383 C4.33972802 132.01049823 4.3402087 130.58032133 4.34190369 129.15014648 C4.34275775 125.30162995 4.32522855 121.45339897 4.30418181 117.60494828 C4.28531579 113.57044345 4.28365681 109.53593069 4.28010559 105.50138855 C4.27081409 97.87663459 4.2462399 90.25201104 4.21605712 82.62731427 C4.18242251 73.94042308 4.16600441 65.25352537 4.15097082 56.56658518 C4.11968745 38.71098311 4.06698383 20.85550207 4 3 C2.68 2.67 1.36 2.34 0 2 C0 1.34 0 0.68 0 0 Z " fill="#C85C1A" transform="translate(409,117)"/>
<path d="M0 0 C1.32 0.33 2.64 0.66 4 1 C3.51340707 1.84641367 3.51340707 1.84641367 3.01698399 2.70992661 C1.89737237 5.23109982 1.74269503 6.89641619 1.72825623 9.64117432 C1.7185379 10.56908279 1.70881958 11.49699127 1.69880676 12.45301819 C1.69821762 13.4640007 1.69762848 14.47498322 1.69702148 15.51660156 C1.68858215 16.58698166 1.68014282 17.65736176 1.67144775 18.76017761 C1.64562962 22.30366454 1.63351684 25.84706799 1.62109375 29.390625 C1.60491846 31.85439717 1.58773843 34.31816293 1.56959534 36.78192139 C1.52386077 43.27582833 1.48908955 49.76974391 1.45739746 56.26373291 C1.40558399 66.64406997 1.34018951 77.02431187 1.26918221 87.40453339 C1.24641389 91.02718789 1.23009688 94.64983056 1.21446228 98.27252197 C1.20104722 100.5036227 1.1874317 102.73472223 1.17358398 104.96582031 C1.17097061 105.9687059 1.16835724 106.97159149 1.16566467 108.00486755 C1.12585029 113.42534911 0.79257921 118.63616452 0 124 C-0.66 124 -1.32 124 -2 124 C-1.89069532 113.00027524 -1.77776795 102.00059351 -1.66066074 91.00094891 C-1.60634177 85.88907558 -1.5531067 80.77719658 -1.50268555 75.6652832 C-1.25291829 50.43346391 -0.84544762 25.21943312 0 0 Z " fill="#DB6E1B" transform="translate(395,140)"/>
<path d="M0 0 C-9.0314937 3.10731391 -17.75474163 3.53600914 -27.1875 3.6875 C-28.63088866 3.7207578 -30.07424931 3.7552549 -31.51757812 3.79101562 C-35.01151274 3.87493438 -38.50552425 3.94218992 -42 4 C-40.73161177 6.08485667 -39.46039242 8.16789576 -38.1875 10.25 C-37.65286133 11.12978516 -37.65286133 11.12978516 -37.10742188 12.02734375 C-35.57875153 14.52370449 -34.05206607 16.93396498 -32.23828125 19.234375 C-31 21 -31 21 -31 24 C-30.34 24 -29.68 24 -29 24 C-27.125 26.046875 -27.125 26.046875 -25 28.75 C-24.29875 29.63171875 -23.5975 30.5134375 -22.875 31.421875 C-21 34 -21 34 -19.875 36.26171875 C-18.70898025 38.57814192 -17.30159389 38.92112786 -15 40 C-14.34 40.99 -13.68 41.98 -13 43 C-14.9375 42.6875 -14.9375 42.6875 -17 42 C-17.33 41.01 -17.66 40.02 -18 39 C-18.90298828 38.79890625 -18.90298828 38.79890625 -19.82421875 38.59375 C-22.93041627 37.74609825 -23.88797379 36.03990425 -25.8125 33.5 C-26.5034375 32.59894531 -27.194375 31.69789063 -27.90625 30.76953125 C-28.94265625 29.39861328 -28.94265625 29.39861328 -30 28 C-31.26984799 26.39505323 -32.54061336 24.79083167 -33.8125 23.1875 C-40.05313852 15.11305198 -40.05313852 15.11305198 -41 10 C-41.66 10 -42.32 10 -43 10 C-43.33 8.68 -43.66 7.36 -44 6 C-44.66 6 -45.32 6 -46 6 C-46 4.35 -46 2.7 -46 1 C-45.15405273 0.97494385 -44.30810547 0.9498877 -43.43652344 0.92407227 C-40.23819782 0.82780817 -37.03997695 0.72866095 -33.84179688 0.62768555 C-32.46878444 0.58489909 -31.0957377 0.54319674 -29.72265625 0.50268555 C-21.93485696 0.2721257 -14.21093719 -0.06669405 -6.46191406 -0.89868164 C-4.06281181 -0.99741502 -2.27793795 -0.71593287 0 0 Z " fill="#9A410F" transform="translate(186,300)"/>
<path d="M0 0 C6.93 0 13.86 0 21 0 C22.125 11.25 22.125 11.25 22.09765625 16.8828125 C22.09443359 18.06875 22.09121094 19.2546875 22.08789062 20.4765625 C22.07951172 21.68054688 22.07113281 22.88453125 22.0625 24.125 C22.05798828 25.36765625 22.05347656 26.6103125 22.04882812 27.890625 C22.03714924 30.92713502 22.0207714 33.96354088 22 37 C19.72926921 38.1353654 18.45716721 38.12892412 15.9375 38.1328125 C15.14085937 38.13410156 14.34421875 38.13539063 13.5234375 38.13671875 C12.69070313 38.13285156 11.85796875 38.12898438 11 38.125 C9.75089844 38.13080078 9.75089844 38.13080078 8.4765625 38.13671875 C7.67992187 38.13542969 6.88328125 38.13414062 6.0625 38.1328125 C5.33160156 38.13168457 4.60070312 38.13055664 3.84765625 38.12939453 C2 38 2 38 0 37 C-1.70523647 28.9682296 -0.95982402 20.44622506 -0.5625 12.3125 C-0.51029297 11.12205078 -0.45808594 9.93160156 -0.40429688 8.70507812 C-0.27609651 5.80308794 -0.13898091 2.90149387 0 0 Z M1 1 C1 12.55 1 24.1 1 36 C6.94 36 12.88 36 19 36 C19 24.45 19 12.9 19 1 C13.06 1 7.12 1 1 1 Z " fill="#853B10" transform="translate(358,169)"/>
<path d="M0 0 C0.66 0 1.32 0 2 0 C2.09371511 16.98610394 2.16411165 33.97212643 2.20724869 50.95843029 C2.22781622 58.8466427 2.25582467 66.73469387 2.30175781 74.62280273 C2.34180463 81.5033695 2.36747496 88.3838194 2.37635398 95.26449949 C2.38153879 98.90302945 2.39360121 102.54122528 2.42292023 106.17964745 C2.45549397 110.2555723 2.45594808 114.33092758 2.45410156 118.40698242 C2.47567322 120.18832077 2.47567322 120.18832077 2.49768066 122.00564575 C2.45745883 130.26073612 0.81362987 137.25097927 -2 145 C-3.20907839 140.91198985 -2.52511455 138.227421 -1.58081055 134.04907227 C0.8245395 121.88696523 0.38442339 109.58142002 0.30418181 97.23709559 C0.28516368 93.80721684 0.28364513 90.37732631 0.28010559 86.94740295 C0.2708577 80.48093883 0.24634462 74.01463062 0.21605712 67.54823452 C0.18228413 60.17436309 0.16597014 52.80048339 0.15097082 45.42655361 C0.11978665 30.28428287 0.06717087 15.14215718 0 0 Z " fill="#733710" transform="translate(391,135)"/>
<path d="M0 0 C0.66 0.33 1.32 0.66 2 1 C-0.27729337 3.61925116 -2.11892468 4.55983026 -5.4375 5.5 C-8.037523 6.3012912 -9.81424199 6.86068149 -12 8.5 C-14 10 -14 10 -23 13 C-23.33 44.35 -23.66 75.7 -24 108 C-24.33 108 -24.66 108 -25 108 C-25.06942929 95.53500246 -25.12277531 83.07005073 -25.15543652 70.60489941 C-25.17111015 64.81717805 -25.1923795 59.02958872 -25.22631836 53.24194336 C-25.2588511 47.65931712 -25.27684021 42.07681808 -25.28463173 36.49410439 C-25.29018618 34.36138213 -25.30103229 32.22866704 -25.31719017 30.09599876 C-25.33888342 27.11487003 -25.34197031 24.13427079 -25.34057617 21.15307617 C-25.351362 20.2661911 -25.36214783 19.37930603 -25.3732605 18.46554565 C-25.36913651 17.65366287 -25.36501251 16.84178009 -25.36076355 16.0052948 C-25.36352893 15.30012317 -25.36629431 14.59495153 -25.36914349 13.86841106 C-24.88275812 11.406583 -23.93506033 10.55339864 -22 9 C-19.99004533 8.11194524 -17.94216149 7.30775325 -15.875 6.5625 C-11.02895372 4.78110422 -6.34954949 2.85822257 -1.70703125 0.6015625 C-0.86205078 0.30378906 -0.86205078 0.30378906 0 0 Z " fill="#CF6213" transform="translate(130,107)"/>
<path d="M0 0 C3.64581687 -0.02887512 7.29160463 -0.04675585 10.9375 -0.0625 C12.49887695 -0.07506836 12.49887695 -0.07506836 14.09179688 -0.08789062 C15.57583008 -0.09272461 15.57583008 -0.09272461 17.08984375 -0.09765625 C18.46450806 -0.10551147 18.46450806 -0.10551147 19.86694336 -0.11352539 C22 0 22 0 23 1 C23.16002101 3.66403582 23.25950505 6.30581257 23.31640625 8.97265625 C23.33505737 9.67934448 23.3537085 10.38603271 23.3729248 11.11413574 C23.44141611 13.76345879 23.50144098 16.41299524 23.5625 19.0625 C23.706875 24.981875 23.85125 30.90125 24 37 C39.51 37 55.02 37 71 37 C71 37.33 71 37.66 71 38 C64.03996553 38.02526838 57.0799428 38.04283222 50.11987305 38.05493164 C47.75007688 38.05997341 45.38028385 38.06680665 43.01049805 38.07543945 C39.61245961 38.0875119 36.21446215 38.09322971 32.81640625 38.09765625 C31.74975235 38.10281754 30.68309845 38.10797882 29.5841217 38.11329651 C28.60318039 38.11337204 27.62223907 38.11344757 26.61157227 38.11352539 C25.30918358 38.11685631 25.30918358 38.11685631 23.98048401 38.12025452 C22 38 22 38 21 37 C20.91144839 34.3337397 20.88475327 31.69352886 20.90234375 29.02734375 C20.9037587 28.22970108 20.90517365 27.43205841 20.90663147 26.61024475 C20.91224684 24.05262565 20.92480188 21.49509282 20.9375 18.9375 C20.94251302 17.20768355 20.94707627 15.47786574 20.95117188 13.74804688 C20.96137209 9.49863761 20.98094432 5.24941584 21 1 C14.07 1 7.14 1 0 1 C0 0.67 0 0.34 0 0 Z " fill="#6D2C0B" transform="translate(105,226)"/>
<path d="M0 0 C-0.33 1.65 -0.66 3.3 -1 5 C-1.99 5.33 -2.98 5.66 -4 6 C-4.33 6.99 -4.66 7.98 -5 9 C-7.31 9.33 -9.62 9.66 -12 10 C-12.0928125 10.928125 -12.0928125 10.928125 -12.1875 11.875 C-13 14 -13 14 -15.4375 15.125 C-16.283125 15.41375 -17.12875 15.7025 -18 16 C-18.66 16.66 -19.32 17.32 -20 18 C-20.66 17.67 -21.32 17.34 -22 17 C-22.33 17.99 -22.66 18.98 -23 20 C-27.90890586 24.23472137 -32.51813243 26.72417585 -39 27 C-35.77698745 24.36929188 -32.5080575 21.92248535 -29.05078125 19.609375 C-28.11943359 18.98160156 -27.18808594 18.35382813 -26.22851562 17.70703125 C-24.30520031 16.41623289 -22.38074484 15.12713155 -20.45507812 13.83984375 C-14.7248415 9.97242632 -9.28594544 5.91822103 -3.98510742 1.47753906 C-2 0 -2 0 0 0 Z " fill="#984E19" transform="translate(330,359)"/>
<path d="M0 0 C0.66 0 1.32 0 2 0 C2.06214974 4.66813589 2.05171272 9.33175202 2 14 C1.99613281 15.08410156 1.99226563 16.16820312 1.98828125 17.28515625 C1.71982977 24.45929054 0.03999526 29.70599967 -5 35 C-5.66 35 -6.32 35 -7 35 C-7 35.66 -7 36.32 -7 37 C-7.66 37 -8.32 37 -9 37 C-9 37.66 -9 38.32 -9 39 C-12.40652872 42.20614467 -15.51400257 43.74809374 -20 45 C-19.67 43.68 -19.34 42.36 -19 41 C-17.35 41 -15.7 41 -14 41 C-14 39.35 -14 37.7 -14 36 C-12.02 36 -10.04 36 -8 36 C-8.0825 35.0925 -8.165 34.185 -8.25 33.25 C-8 30 -8 30 -6.125 27.625 C-4 26 -4 26 -2 26 C-1.25484101 22.61363691 -0.83229437 19.38056897 -0.68359375 15.91796875 C-0.64169922 14.98662109 -0.59980469 14.05527344 -0.55664062 13.09570312 C-0.51732422 12.13599609 -0.47800781 11.17628906 -0.4375 10.1875 C-0.39431641 9.20845703 -0.35113281 8.22941406 -0.30664062 7.22070312 C-0.2009774 4.81392973 -0.09887673 2.40706017 0 0 Z " fill="#A84F15" transform="translate(309,292)"/>
<path d="M0 0 C7.26 0 14.52 0 22 0 C22 11.88 22 23.76 22 36 C20 34 20 34 19.77294922 30.83544922 C19.77326611 29.49182037 19.78457819 28.1481659 19.8046875 26.8046875 C19.8075174 26.09724396 19.81034729 25.38980042 19.81326294 24.66091919 C19.82446863 22.3987749 19.84957321 20.13702485 19.875 17.875 C19.88502933 16.34245363 19.89415526 14.80990106 19.90234375 13.27734375 C19.9227088 9.51795465 19.96185482 5.75941922 20 2 C10.595 2.495 10.595 2.495 1 3 C0.67 2.01 0.34 1.02 0 0 Z " fill="#D06C24" transform="translate(104,227)"/>
<path d="M0 0 C0.33 0 0.66 0 1 0 C1 18.15 1 36.3 1 55 C9.58 55 18.16 55 27 55 C27 55.66 27 56.32 27 57 C8.66315789 58.36842105 8.66315789 58.36842105 1 57 C0 56 0 56 -0.12025452 53.75376892 C-0.11803391 52.76115555 -0.11581329 51.76854218 -0.11352539 50.74584961 C-0.11344986 49.62476303 -0.11337433 48.50367645 -0.11329651 47.34861755 C-0.10813522 46.1288472 -0.10297394 44.90907684 -0.09765625 43.65234375 C-0.0962413 42.41078018 -0.09482635 41.16921661 -0.09336853 39.89002991 C-0.08870591 36.58394509 -0.07971497 33.27792854 -0.06866455 29.97186279 C-0.05844827 26.6003885 -0.05387045 23.22890717 -0.04882812 19.85742188 C-0.03777395 13.23826225 -0.02101736 6.61913507 0 0 Z " fill="#893E10" transform="translate(323,160)"/>
<path d="M0 0 C2.7268427 3.27221124 5.26039743 6.67086581 7.75 10.125 C8.36359375 10.97320312 8.9771875 11.82140625 9.609375 12.6953125 C11 15 11 15 11 18 C11.66 18 12.32 18 13 18 C14.875 20.046875 14.875 20.046875 17 22.75 C17.70125 23.63171875 18.4025 24.5134375 19.125 25.421875 C21 28 21 28 22.125 30.26171875 C23.29101975 32.57814192 24.69840611 32.92112786 27 34 C27.66 34.99 28.32 35.98 29 37 C27.0625 36.6875 27.0625 36.6875 25 36 C24.67 35.01 24.34 34.02 24 33 C23.09701172 32.79890625 23.09701172 32.79890625 22.17578125 32.59375 C19.06958373 31.74609825 18.11202621 30.03990425 16.1875 27.5 C15.4965625 26.59894531 14.805625 25.69789063 14.09375 24.76953125 C13.05734375 23.39861328 13.05734375 23.39861328 12 22 C10.73015201 20.39505323 9.45938664 18.79083167 8.1875 17.1875 C5.89534128 14.22853147 3.78999415 11.29735764 2 8 C1.608125 7.319375 1.21625 6.63875 0.8125 5.9375 C0 4 0 4 0 0 Z " fill="#883D11" transform="translate(144,306)"/>
<path d="M0 0 C0.99 0 1.98 0 3 0 C3 0.66 3 1.32 3 2 C3.99 2.33 4.98 2.66 6 3 C6 32.04 6 61.08 6 91 C5.67 91 5.34 91 5 91 C4.67 61.96 4.34 32.92 4 3 C2.68 2.67 1.36 2.34 0 2 C0 1.34 0 0.68 0 0 Z " fill="#CD5E18" transform="translate(409,117)"/>
<path d="M0 0 C5.13503344 0.64187918 9.9943454 1.68272247 15 3 C15 3.66 15 4.32 15 5 C17.97 5.66 20.94 6.32 24 7 C24 7.66 24 8.32 24 9 C25.0725 9.28875 26.145 9.5775 27.25 9.875 C34.42857143 12.02857143 34.42857143 12.02857143 36.25 15.125 C36.4975 15.74375 36.745 16.3625 37 17 C30.87964887 15.04771017 25.09542156 12.4958562 19.23144531 9.88696289 C17.37554196 9.06274069 15.51605204 8.24702061 13.65625 7.43164062 C12.47804688 6.90892578 11.29984375 6.38621094 10.0859375 5.84765625 C9.0139209 5.37336182 7.9419043 4.89906738 6.83740234 4.41040039 C4.28821832 3.14326598 2.19839566 1.79443963 0 0 Z " fill="#9C4614" transform="translate(324,104)"/>
<path d="M0 0 C0.33 0 0.66 0 1 0 C1 3.63 1 7.26 1 11 C-2.58764316 12.79382158 -3.53767681 13.2514026 -7.21875 13.23046875 C-8.05583496 13.22917969 -8.89291992 13.22789062 -9.75537109 13.2265625 C-10.66109863 13.21367187 -11.56682617 13.20078125 -12.5 13.1875 C-13.44311035 13.18105469 -14.3862207 13.17460937 -15.35791016 13.16796875 C-27.911015 13.03828373 -40.45799171 12.51833316 -53 12 C-53 11.67 -53 11.34 -53 11 C-27.755 10.505 -27.755 10.505 -2 10 C-1.34 6.7 -0.68 3.4 0 0 Z " fill="#CC5F16" transform="translate(181,253)"/>
<path d="M0 0 C5.0956885 0.55088524 9.54497774 2.21973576 14.30078125 4.0234375 C16.57178905 4.84507563 18.78271122 5.49262355 21.125 6.0625 C22.07375 6.371875 23.0225 6.68125 24 7 C24.33 7.99 24.66 8.98 25 10 C26.8418639 10.64864252 26.8418639 10.64864252 29 11 C30.42366111 11.50139889 31.84062729 12.02224046 33.25 12.5625 C33.95640625 12.83191406 34.6628125 13.10132812 35.390625 13.37890625 C35.92171875 13.58386719 36.4528125 13.78882812 37 14 C37 14.99 37 15.98 37 17 C32.01577292 15.80811961 27.84879502 13.9921801 23.30859375 11.640625 C18.71940448 9.36499396 14.04981644 7.28036486 9.375 5.1875 C8.46081299 4.77814209 7.54662598 4.36878418 6.60473633 3.94702148 C4.40387677 2.96305637 2.20234437 1.98063631 0 1 C0 0.67 0 0.34 0 0 Z " fill="#A04C16" transform="translate(283,85)"/>
<path d="M0 0 C5.7690808 0.5958231 10.6183506 2.77124427 15.875 5.0625 C20.391875 7.0115625 20.391875 7.0115625 25 9 C25 22.53 25 36.06 25 50 C24.67 50 24.34 50 24 50 C24 36.8 24 23.6 24 10 C21.69 9.67 19.38 9.34 17 9 C14.75244141 8.27563477 14.75244141 8.27563477 12.8515625 7.44140625 C12.15675781 7.13783203 11.46195312 6.83425781 10.74609375 6.52148438 C9.69615234 6.04678711 9.69615234 6.04678711 8.625 5.5625 C7.90183594 5.24990234 7.17867188 4.93730469 6.43359375 4.61523438 C1.13125377 2.26250753 1.13125377 2.26250753 0 0 Z " fill="#CA6319" transform="translate(370,125)"/>
<path d="M0 0 C2.19050021 0.09017996 4.378466 0.24666208 6.5625 0.4375 C7.76003906 0.53933594 8.95757812 0.64117187 10.19140625 0.74609375 C11.11824219 0.82988281 12.04507813 0.91367188 13 1 C9.54280599 4.45719401 4.87920368 6.10202718 0.5 8.1875 C-0.47582031 8.66380859 -1.45164063 9.14011719 -2.45703125 9.63085938 C-3.38902344 10.07623047 -4.32101563 10.52160156 -5.28125 10.98046875 C-6.13783203 11.39192139 -6.99441406 11.80337402 -7.87695312 12.22729492 C-8.57755859 12.4822876 -9.27816406 12.73728027 -10 13 C-10.66 12.67 -11.32 12.34 -12 12 C-11.67 10.68 -11.34 9.36 -11 8 C-9.02 8 -7.04 8 -5 8 C-4.67 7.01 -4.34 6.02 -4 5 C-2.35 4.67 -0.7 4.34 1 4 C1 3.34 1 2.68 1 2 C0.34 1.67 -0.32 1.34 -1 1 C-0.67 0.67 -0.34 0.34 0 0 Z " fill="#B54C16" transform="translate(159,114)"/>
<path d="M0 0 C1.32 0.66 2.64 1.32 4 2 C3.45730469 2.67546875 2.91460937 3.3509375 2.35546875 4.046875 C1.64003906 4.93890625 0.92460937 5.8309375 0.1875 6.75 C-0.52019531 7.63171875 -1.22789062 8.5134375 -1.95703125 9.421875 C-3.22666219 11.02408613 -4.46101905 12.65576934 -5.63671875 14.328125 C-6.08660156 14.87984375 -6.53648437 15.4315625 -7 16 C-7.66 16 -8.32 16 -9 16 C-9 16.66 -9 17.32 -9 18 C-9.66 18 -10.32 18 -11 18 C-11.20625 18.556875 -11.4125 19.11375 -11.625 19.6875 C-13.55000774 22.92501302 -16.03850902 24.68231141 -19 27 C-19 24.69 -19 22.38 -19 20 C-17.33333333 20 -15.66666667 20 -14 20 C-13.67 19.01 -13.34 18.02 -13 17 C-12.34 17 -11.68 17 -11 17 C-11 16.01 -11 15.02 -11 14 C-10.34 13.34 -9.68 12.68 -9 12 C-8.01 12 -7.02 12 -6 12 C-5.67 10.68 -5.34 9.36 -5 8 C-4.67 8.33 -4.34 8.66 -4 9 C-3.79503906 8.43410156 -3.59007812 7.86820312 -3.37890625 7.28515625 C-3.10949219 6.55167969 -2.84007812 5.81820313 -2.5625 5.0625 C-2.29566406 4.33160156 -2.02882813 3.60070312 -1.75390625 2.84765625 C-1 1 -1 1 0 0 Z " fill="#B04D16" transform="translate(380,336)"/>
<path d="M0 0 C2.9401214 0.32068892 3.87105287 0.84978519 5.83105469 3.13305664 C6.43852539 4.04949951 7.04599609 4.96594238 7.671875 5.91015625 C8.33574219 6.89951172 8.99960937 7.88886719 9.68359375 8.90820312 C10.36550781 9.94912109 11.04742187 10.99003906 11.75 12.0625 C12.44738281 13.10728516 13.14476562 14.15207031 13.86328125 15.22851562 C15.58586473 17.81239085 17.29748603 20.40287507 19 23 C18.67 23.66 18.34 24.32 18 25 C13.07865846 19.65641318 8.90076321 14.12286981 5 8 C4.34 7.01 3.68 6.02 3 5 C3 4.01 3 3.02 3 2 C2.01 2 1.02 2 0 2 C-0.2165625 3.175625 -0.2165625 3.175625 -0.4375 4.375 C-1 7 -1 7 -2 9 C-4.0625 9.625 -4.0625 9.625 -6 10 C-4.6302836 6.00499382 -2.74277578 3.19990508 0 0 Z " fill="#7C340E" transform="translate(272,229)"/>
<path d="M0 0 C0.66 0.33 1.32 0.66 2 1 C1.67 1.99 1.34 2.98 1 4 C1.38932856 6.14255793 1.38932856 6.14255793 2 8 C-1 7 -1 7 -3 6 C-3.12375 6.5775 -3.2475 7.155 -3.375 7.75 C-4.02855574 10.10280066 -4.65913896 11.95342262 -6 14 C-8.125 14.75 -8.125 14.75 -10 15 C-9.67 15.66 -9.34 16.32 -9 17 C-8.67 17.99 -8.34 18.98 -8 20 C-10.64 19.67 -13.28 19.34 -16 19 C-16 18.34 -16 17.68 -16 17 C-15.34 17 -14.68 17 -14 17 C-14 16.34 -14 15.68 -14 15 C-13.34 15 -12.68 15 -12 15 C-12 14.34 -12 13.68 -12 13 C-10.125 10.875 -10.125 10.875 -8 9 C-7.34 9 -6.68 9 -6 9 C-5.7525 8.443125 -5.505 7.88625 -5.25 7.3125 C-3.78393985 4.60028873 -1.97010529 2.36412635 0 0 Z " fill="#B66221" transform="translate(362,326)"/>
<path d="M0 0 C6.15234375 0.5859375 6.15234375 0.5859375 8 1 C8.33 1.66 8.66 2.32 9 3 C9.99 3.33 10.98 3.66 12 4 C12 4.66 12 5.32 12 6 C12.62648437 6.20496094 13.25296875 6.40992188 13.8984375 6.62109375 C14.71570313 6.89050781 15.53296875 7.15992188 16.375 7.4375 C17.18710938 7.70433594 17.99921875 7.97117187 18.8359375 8.24609375 C21 9 21 9 23 10 C23 10.99 23 11.98 23 13 C25.31 13.33 27.62 13.66 30 14 C30 14.99 30 15.98 30 17 C19.50067074 12.96935862 9.12445884 7.59195598 0 1 C0 0.67 0 0.34 0 0 Z " fill="#AD5316" transform="translate(216,405)"/>
<path d="M0 0 C-3.64202193 1.73985329 -7.28986532 3.46676628 -10.94360352 5.18188477 C-12.18583464 5.76721823 -13.42641465 6.35606915 -14.6652832 6.94848633 C-16.4456548 7.79910039 -18.23252132 8.63607819 -20.01953125 9.47265625 C-21.09307861 9.98062744 -22.16662598 10.48859863 -23.27270508 11.01196289 C-26 12 -26 12 -29 11 C-27.68 10.67 -26.36 10.34 -25 10 C-25 9.34 -25 8.68 -25 8 C-24.01 7.34 -23.02 6.68 -22 6 C-21.34 5.01 -20.68 4.02 -20 3 C-17.66832622 2.91201231 -15.33199388 2.92094936 -13 3 C-11.32442621 2.71479595 -9.65182755 2.40044304 -8 2 C-8 1.34 -8 0.68 -8 0 C-4.90645403 -0.99435406 -3.09720845 -0.87840996 0 0 Z " fill="#BB4C18" transform="translate(210,99)"/>
<path d="M0 0 C0.99 0.33 1.98 0.66 3 1 C3 2.98 3 4.96 3 7 C18.51 7 34.02 7 50 7 C50 7.33 50 7.66 50 8 C43.03996553 8.02526838 36.0799428 8.04283222 29.11987305 8.05493164 C26.75007688 8.05997341 24.38028385 8.06680665 22.01049805 8.07543945 C18.61245961 8.0875119 15.21446215 8.09322971 11.81640625 8.09765625 C10.74975235 8.10281754 9.68309845 8.10797882 8.5841217 8.11329651 C7.60318039 8.11337204 6.62223907 8.11344757 5.61157227 8.11352539 C4.74331314 8.115746 3.87505402 8.11796661 2.98048401 8.12025452 C1 8 1 8 0 7 C-0.04092937 4.66702567 -0.04241723 2.33294775 0 0 Z " fill="#944B20" transform="translate(126,256)"/>
<path d="M0 0 C0.99 0.33 1.98 0.66 3 1 C3.33 3.31 3.66 5.62 4 8 C1.0534615 9.80066242 -1.88801935 11.50163895 -5 13 C-5.99 12.34 -6.98 11.68 -8 11 C-7.67 10.01 -7.34 9.02 -7 8 C-5.68 8 -4.36 8 -3 8 C-1.92474806 5.34771188 -0.90543849 2.71631546 0 0 Z " fill="#F77F23" transform="translate(359,332)"/>
<path d="M0 0 C0.82676941 2.85454287 1.08378222 5.26662523 0.95703125 8.23046875 C0.35307524 20.68801908 0.35307524 20.68801908 5 32 C5.66 32.99 6.32 33.98 7 35 C6.67 35.99 6.34 36.98 6 38 C5.505 36.515 5.505 36.515 5 35 C4.34 35 3.68 35 3 35 C-2.61864864 23.24003773 -3.31216939 12.62764582 0 0 Z " fill="#83400E" transform="translate(237,288)"/>
<path d="M0 0 C0.33 0 0.66 0 1 0 C1.02712351 2.39591038 1.0468982 4.79150957 1.0625 7.1875 C1.07087891 7.86103516 1.07925781 8.53457031 1.08789062 9.22851562 C1.10139287 11.99647651 1.07919167 14.61962555 0.51367188 17.3359375 C-0.07367037 20.38207751 -0.2135496 23.29413783 -0.31640625 26.39453125 C-0.35830078 27.59658203 -0.40019531 28.79863281 -0.44335938 30.03710938 C-0.48267578 31.28298828 -0.52199219 32.52886719 -0.5625 33.8125 C-0.60568359 35.07771484 -0.64886719 36.34292969 -0.69335938 37.64648438 C-0.7992447 40.76421889 -0.90132405 43.88203035 -1 47 C-1.33 47 -1.66 47 -2 47 C-2.04956675 41.27084606 -2.08579861 35.54181793 -2.10986328 29.8125 C-2.11989919 27.86488672 -2.13353088 25.91728843 -2.15087891 23.96972656 C-2.17523328 21.16467583 -2.18650737 18.35982495 -2.1953125 15.5546875 C-2.20563507 14.68883026 -2.21595764 13.82297302 -2.22659302 12.93087769 C-2.22746211 8.21097121 -1.82472246 4.43868475 0 0 Z " fill="#DC711D" transform="translate(174,204)"/>
<path d="M0 0 C2.31 0 4.62 0 7 0 C-1.31283506 5.54189004 -10.55057723 8.9289376 -20 12 C-20 11.34 -20 10.68 -20 10 C-19.01 9.34 -18.02 8.68 -17 8 C-16.34 7.01 -15.68 6.02 -15 5 C-12.8359375 4.70703125 -12.8359375 4.70703125 -10.375 4.8125 C-9.55773437 4.83957031 -8.74046875 4.86664063 -7.8984375 4.89453125 C-7.27195313 4.92933594 -6.64546875 4.96414062 -6 5 C-6 4.34 -6 3.68 -6 3 C-5.195625 2.87625 -4.39125 2.7525 -3.5625 2.625 C-2.716875 2.41875 -1.87125 2.2125 -1 2 C-0.67 1.34 -0.34 0.68 0 0 Z " fill="#A64413" transform="translate(236,83)"/>
<path d="M0 0 C-0.33 1.65 -0.66 3.3 -1 5 C-1.99 5.33 -2.98 5.66 -4 6 C-4.33 6.99 -4.66 7.98 -5 9 C-7.31 9.33 -9.62 9.66 -12 10 C-12.33 11.32 -12.66 12.64 -13 14 C-14.32 13.67 -15.64 13.34 -17 13 C-4.8125 0 -4.8125 0 0 0 Z " fill="#BA6525" transform="translate(330,359)"/>
<path d="M0 0 C0.99 0 1.98 0 3 0 C2.47458553 7.7498635 0.44408524 14.6450086 -2 22 C-2.33 22 -2.66 22 -3 22 C-2.88525534 19.45749979 -2.7585303 16.91652662 -2.625 14.375 C-2.5940625 13.66214844 -2.563125 12.94929688 -2.53125 12.21484375 C-2.28979845 7.82847392 -1.60657269 4.1405166 0 0 Z " fill="#AB4917" transform="translate(412,270)"/>
<path d="M0 0 C1.22903387 3.68710162 0.68373687 4.36147956 -1 7.75 C-3.98462033 13.44412203 -7.71410486 18.90470162 -14 21 C-13.34 19.35 -12.68 17.7 -12 16 C-11.01 16 -10.02 16 -9 16 C-9 14.68 -9 13.36 -9 12 C-8.34 12 -7.68 12 -7 12 C-6.72414062 11.42765625 -6.44828125 10.8553125 -6.1640625 10.265625 C-5.00532152 8.01035733 -3.73124294 5.89143622 -2.375 3.75 C-1.92898437 3.04359375 -1.48296875 2.3371875 -1.0234375 1.609375 C-0.68570313 1.07828125 -0.34796875 0.5471875 0 0 Z " fill="#B04B14" transform="translate(205,275)"/>
<path d="M0 0 C0.66 0.33 1.32 0.66 2 1 C-0.27729337 3.61925116 -2.11892468 4.55983026 -5.4375 5.5 C-8.13116709 6.32150361 -9.80042214 6.83784299 -12 8.625 C-15.28415433 10.8828561 -19.09777569 10.7581955 -23 11 C-21.47606799 7.95213598 -19.14886708 7.76937993 -16 6.625 C-11.1151125 4.81936502 -6.38983499 2.87780476 -1.70703125 0.6015625 C-0.86205078 0.30378906 -0.86205078 0.30378906 0 0 Z " fill="#AB5923" transform="translate(130,107)"/>
<path d="M0 0 C-3.70090521 3.9252025 -7.54959656 6.94580156 -12 10 C-12.66 9.67 -13.32 9.34 -14 9 C-14 8.01 -14 7.02 -14 6 C-13.01 5.34 -12.02 4.68 -11 4 C-11 3.01 -11 2.02 -11 1 C-7.27569643 0.30710631 -3.78916254 -0.11144596 0 0 Z " fill="#DC6518" transform="translate(335,385)"/>
<path d="M0 0 C3.52428987 0.60100228 6.53497745 1.53185384 9.79296875 2.99609375 C11.1087793 3.58680664 11.1087793 3.58680664 12.45117188 4.18945312 C13.35416016 4.60130859 14.25714844 5.01316406 15.1875 5.4375 C16.10208984 5.84548828 17.01667969 6.25347656 17.95898438 6.67382812 C24.74282977 9.74282977 24.74282977 9.74282977 27 12 C25.35 12 23.7 12 22 12 C22 11.34 22 10.68 22 10 C19.36 9.67 16.72 9.34 14 9 C13.67 8.01 13.34 7.02 13 6 C12.34 5.896875 11.68 5.79375 11 5.6875 C7.16158991 4.80786436 3.66903309 3.43030104 0 2 C0 1.34 0 0.68 0 0 Z " fill="#934713" transform="translate(291,63)"/>
<path d="M0 0 C3.72194976 1.61402087 6.53024575 3.96407426 9.625 6.5625 C13.11066681 9.58732256 13.11066681 9.58732256 17 12 C17 12.66 17 13.32 17 14 C17.99 14.33 18.98 14.66 20 15 C19.01 15.495 19.01 15.495 18 16 C13.11256362 14.18141902 10.17673251 11.3397215 6.6796875 7.640625 C4.92851455 5.80208805 4.92851455 5.80208805 2.0625 4.25 C1.381875 3.8375 0.70125 3.425 0 3 C0 2.01 0 1.02 0 0 Z " fill="#853B0E" transform="translate(179,349)"/>
<path d="M0 0 C0.66 0.33 1.32 0.66 2 1 C1.67 1.99 1.34 2.98 1 4 C0.34 4 -0.32 4 -1 4 C-1.07476562 4.59167969 -1.14953125 5.18335938 -1.2265625 5.79296875 C-2.27109348 8.77357483 -3.75525369 9.60415411 -6.375 11.3125 C-7.16648437 11.84488281 -7.95796875 12.37726563 -8.7734375 12.92578125 C-11 14 -11 14 -14 13 C-12.38050958 11.49405319 -10.75424026 9.99539332 -9.125 8.5 C-7.76761719 7.24703125 -7.76761719 7.24703125 -6.3828125 5.96875 C-4 4 -4 4 -2 4 C-2 3.34 -2 2.68 -2 2 C-1.34 2 -0.68 2 0 2 C0 1.34 0 0.68 0 0 Z " fill="#AE5C1F" transform="translate(344,345)"/>
<path d="M0 0 C-10.55002165 5.97661325 -10.55002165 5.97661325 -15.875 6.0625 C-19.10350086 4.96480971 -22.02649938 3.66806132 -25 2 C-21.94736336 1.01879536 -20.05263664 1.01879536 -17 2 C-17 2.66 -17 3.32 -17 4 C-14.28146299 3.11647547 -11.57789785 2.23290045 -8.92578125 1.1640625 C-8.22839844 0.88304687 -7.53101563 0.60203125 -6.8125 0.3125 C-6.15894531 0.04050781 -5.50539063 -0.23148437 -4.83203125 -0.51171875 C-3 -1 -3 -1 0 0 Z " fill="#913B0E" transform="translate(275,423)"/>
<path d="M0 0 C4.71370756 0.64985095 8.57686444 2.51561392 12.8125 4.5625 C13.50537109 4.89185547 14.19824219 5.22121094 14.91210938 5.56054688 C16.61044948 6.36872251 18.30555769 7.18368377 20 8 C20 8.33 20 8.66 20 9 C17.69 9.33 15.38 9.66 13 10 C12.67 8.68 12.34 7.36 12 6 C11.42765625 5.86722656 10.8553125 5.73445313 10.265625 5.59765625 C8.02349125 5.00619683 5.91420381 4.26711146 3.75 3.4375 C3.04359375 3.16808594 2.3371875 2.89867188 1.609375 2.62109375 C1.07828125 2.41613281 0.5471875 2.21117188 0 2 C0 1.34 0 0.68 0 0 Z " fill="#974513" transform="translate(318,75)"/>
<path d="M0 0 C-1.65 0.66 -3.3 1.32 -5 2 C-5 2.66 -5 3.32 -5 4 C-9.79554278 6.63754853 -15.63672638 9.67968596 -21.2421875 8.546875 C-21.82226562 8.36640625 -22.40234375 8.1859375 -23 8 C-19.54713337 6.46652884 -16.08692164 4.95040472 -12.625 3.4375 C-11.64015625 2.99986328 -10.6553125 2.56222656 -9.640625 2.11132812 C-8.69960937 1.70205078 -7.75859375 1.29277344 -6.7890625 0.87109375 C-5.91975098 0.48880615 -5.05043945 0.10651855 -4.15478516 -0.28735352 C-2 -1 -2 -1 0 0 Z " fill="#A2531D" transform="translate(223,67)"/>
<path d="M0 0 C0.66 0 1.32 0 2 0 C0.12849037 7.15129696 -2.49786342 13.49405457 -6 20 C-6.33 20 -6.66 20 -7 20 C-6.40380045 15.13103697 -5.43023178 10.67209049 -4 6 C-3.34 6 -2.68 6 -2 6 C-1.34 4.02 -0.68 2.04 0 0 Z " fill="#9A4313" transform="translate(407,292)"/>
<path d="M0 0 C0.625 1.8125 0.625 1.8125 1 4 C0.01 5.485 0.01 5.485 -1 7 C-1.39387788 9.32387947 -1.73486085 11.65793749 -2 14 C-3.32 14 -4.64 14 -6 14 C-6 14.66 -6 15.32 -6 16 C-6.99 16.33 -7.98 16.66 -9 17 C-7.51481201 12.95698825 -5.57122002 9.38853744 -3.375 5.6875 C-2.74335938 4.61886719 -2.11171875 3.55023438 -1.4609375 2.44921875 C-0.97882813 1.64097656 -0.49671875 0.83273437 0 0 Z " fill="#9E4F16" transform="translate(253,258)"/>
<path d="M0 0 C5.30018387 0.59355371 9.58136893 2.37372632 14.375 4.5625 C15.11105469 4.89185547 15.84710938 5.22121094 16.60546875 5.56054688 C18.40644557 6.36747805 20.20362181 7.1828826 22 8 C21.67 8.66 21.34 9.32 21 10 C15.80579767 8.67638087 11.30870173 6.84603836 6.5625 4.375 C5.60827148 3.88773438 5.60827148 3.88773438 4.63476562 3.390625 C3.08700056 2.59928647 1.5430813 1.8004333 0 1 C0 0.67 0 0.34 0 0 Z " fill="#8D3F11" transform="translate(370,125)"/>
<path d="M0 0 C0.33 0.99 0.66 1.98 1 3 C1.99 3.33 2.98 3.66 4 4 C4.33 6.31 4.66 8.62 5 11 C4.01 11.495 4.01 11.495 3 12 C3 11.34 3 10.68 3 10 C2.34 10 1.68 10 1 10 C-0.65 7.03 -2.3 4.06 -4 1 C-2.68 0.67 -1.36 0.34 0 0 Z " fill="#BA5D1A" transform="translate(131,325)"/>
<path d="M0 0 C2.19050021 0.09017996 4.378466 0.24666208 6.5625 0.4375 C7.76003906 0.53933594 8.95757812 0.64117187 10.19140625 0.74609375 C11.11824219 0.82988281 12.04507813 0.91367188 13 1 C9.68518684 4.31481316 6.84979946 4.97213772 2.1875 5.125 C0.6096875 5.063125 0.6096875 5.063125 -1 5 C-0.34 4.67 0.32 4.34 1 4 C1 3.34 1 2.68 1 2 C0.34 1.67 -0.32 1.34 -1 1 C-0.67 0.67 -0.34 0.34 0 0 Z " fill="#EC6A1C" transform="translate(159,114)"/>
<path d="M0 0 C0.66 0 1.32 0 2 0 C2.66 1.65 3.32 3.3 4 5 C2.68 5.99 1.36 6.98 0 8 C0 7.34 0 6.68 0 6 C-2.31 7.98 -4.62 9.96 -7 12 C-7 8.23396179 -5.92592757 7.22857351 -3.625 4.3125 C-2.99851563 3.50425781 -2.37203125 2.69601563 -1.7265625 1.86328125 C-1.15679687 1.24839844 -0.58703125 0.63351563 0 0 Z " fill="#C7681E" transform="translate(187,179)"/>
<path d="M0 0 C1.65 0 3.3 0 5 0 C2.7360039 2.46717524 0.40939756 4.10134139 -2.5 5.75 C-3.66015625 6.42289062 -3.66015625 6.42289062 -4.84375 7.109375 C-7 8 -7 8 -10 7 C-9.34 5.68 -8.68 4.36 -8 3 C-7.01 3 -6.02 3 -5 3 C-5 2.34 -5 1.68 -5 1 C-3.35 1 -1.7 1 0 1 C0 0.67 0 0.34 0 0 Z " fill="#BA4F15" transform="translate(297,407)"/>
<path d="M0 0 C-0.33 0.66 -0.66 1.32 -1 2 C-1.99 2.33 -2.98 2.66 -4 3 C-4.33 3.66 -4.66 4.32 -5 5 C-6.98 5 -8.96 5 -11 5 C-11 5.66 -11 6.32 -11 7 C-13.31 7.33 -15.62 7.66 -18 8 C-12.50947542 3.34137308 -7.54204551 -0.73580932 0 0 Z " fill="#B85F21" transform="translate(288,390)"/>
<path d="M0 0 C4.77609498 1.64178265 8.79382904 4.26546702 13 7 C10.4345406 9.5654594 8.52313332 9.54046087 5 10 C4.731875 9.071875 4.46375 8.14375 4.1875 7.1875 C3.07551601 4.20270088 2.33417575 3.01587906 0 1 C0 0.67 0 0.34 0 0 Z " fill="#A74F16" transform="translate(221,380)"/>
<path d="M0 0 C4.75 -0.125 4.75 -0.125 7 1 C7 1.66 7 2.32 7 3 C8.98 2.67 10.96 2.34 13 2 C12.34 3.65 11.68 5.3 11 7 C8.5625 6.625 8.5625 6.625 6 6 C5.67 5.34 5.34 4.68 5 4 C4.01 3.7834375 4.01 3.7834375 3 3.5625 C2.34 3.376875 1.68 3.19125 1 3 C0.67 2.01 0.34 1.02 0 0 Z " fill="#F47F27" transform="translate(188,384)"/>
<path d="M0 0 C0.721875 0.495 1.44375 0.99 2.1875 1.5 C0.25 2.0625 0.25 2.0625 -1.8125 2.5 C-2.1425 2.17 -2.4725 1.84 -2.8125 1.5 C-6.22395074 1.11011992 -7.81683418 1.50216709 -10.9375 3.0625 C-12.360625 3.7740625 -12.360625 3.7740625 -13.8125 4.5 C-14.8025 4.17 -15.7925 3.84 -16.8125 3.5 C-13.14019094 -2.00846359 -5.70218432 -3.04116497 0 0 Z " fill="#A54919" transform="translate(265.8125,75.5)"/>
<path d="M0 0 C2.475 0.495 2.475 0.495 5 1 C5 1.66 5 2.32 5 3 C6.65 3.33 8.3 3.66 10 4 C10 4.66 10 5.32 10 6 C10.61875 6.0825 11.2375 6.165 11.875 6.25 C14 7 14 7 15.25 9.0625 C15.4975 9.701875 15.745 10.34125 16 11 C11.87321179 9.55901911 8.69813572 7.52700506 5.1875 4.9375 C4.21167969 4.22464844 3.23585937 3.51179688 2.23046875 2.77734375 C1.49441406 2.19082031 0.75835937 1.60429687 0 1 C0 0.67 0 0.34 0 0 Z " fill="#AC561B" transform="translate(184,384)"/>
<path d="M0 0 C0 0.66 0 1.32 0 2 C-0.721875 2.268125 -1.44375 2.53625 -2.1875 2.8125 C-4.97590126 3.98982498 -7.44095724 5.39145884 -10 7 C-10.33 5.68 -10.66 4.36 -11 3 C-7.48550811 -0.37391222 -4.73940561 -0.27342725 0 0 Z " fill="#D57327" transform="translate(200,175)"/>
<path d="M0 0 C0.66 0.33 1.32 0.66 2 1 C1.21625 1.4125 0.4325 1.825 -0.375 2.25 C-3.38502449 3.94315075 -3.38502449 3.94315075 -5 8 C-8.63 8 -12.26 8 -16 8 C-12.90147699 5.93431799 -9.80607126 4.39704581 -6.4375 2.8125 C-5.28121094 2.26207031 -4.12492188 1.71164063 -2.93359375 1.14453125 C-1.96550781 0.76683594 -0.99742187 0.38914062 0 0 Z " fill="#9F4D16" transform="translate(189,80)"/>
<path d="M0 0 C0.33 0 0.66 0 1 0 C0.63223832 6.30267439 -0.16625922 11.33251843 -3 17 C-4.0143635 13.83461036 -3.95408471 11.72075879 -3.1875 8.5 C-3.01605469 7.7471875 -2.84460938 6.994375 -2.66796875 6.21875 C-1.99511069 3.98375948 -1.10497297 2.05142661 0 0 Z " fill="#B25F1B" transform="translate(241,279)"/>
<path d="M0 0 C2.31 0 4.62 0 7 0 C6.01 0.495 6.01 0.495 5 1 C5 1.66 5 2.32 5 3 C1.59347128 6.20614467 -1.51400257 7.74809374 -6 9 C-5.67 7.68 -5.34 6.36 -5 5 C-3.35 5 -1.7 5 0 5 C0 3.35 0 1.7 0 0 Z " fill="#A64517" transform="translate(295,328)"/>
<path d="M0 0 C0.66 0.66 1.32 1.32 2 2 C1.98251781 4.91952568 1.86055367 7.72297885 1.625 10.625 C1.56828125 11.42679687 1.5115625 12.22859375 1.453125 13.0546875 C1.31152018 15.03715498 1.15697741 17.01869051 1 19 C-1.43929003 15.34106495 -1.26289673 12.59721667 -1.1875 8.375 C-1.18685547 7.68148438 -1.18621094 6.98796875 -1.18554688 6.2734375 C-1.14043257 1.14043257 -1.14043257 1.14043257 0 0 Z " fill="#DA6D15" transform="translate(238,295)"/>
<path d="M0 0 C3.40312738 1.05875074 6.01353231 2.00902154 9 4 C9 4.66 9 5.32 9 6 C10.32 6.33 11.64 6.66 13 7 C13 7.99 13 8.98 13 10 C9.41726669 8.34643078 6.19026533 6.32019297 3 4 C3 3.34 3 2.68 3 2 C2.01 1.67 1.02 1.34 0 1 C0 0.67 0 0.34 0 0 Z " fill="#A5541D" transform="translate(166,370)"/>
<path d="M0 0 C4.85963179 0.60745397 8.7405518 2.72758967 13 5 C12.401875 5.144375 11.80375 5.28875 11.1875 5.4375 C9.43849596 5.8872439 7.71322977 6.42892341 6 7 C5.34 6.67 4.68 6.34 4 6 C4 4.68 4 3.36 4 2 C2.68 2 1.36 2 0 2 C0 1.34 0 0.68 0 0 Z " fill="#B85617" transform="translate(382,104)"/>
<path d="M0 0 C0.66 0 1.32 0 2 0 C0.43358249 4.30764815 -1.68336156 8.06171464 -4 12 C-5.10844919 8.67465243 -4.84454356 6.37817425 -4 3 C-3.01 3 -2.02 3 -1 3 C-0.67 2.01 -0.34 1.02 0 0 Z " fill="#B65118" transform="translate(398,312)"/>
<path d="M0 0 C1.65 0.33 3.3 0.66 5 1 C4.67 1.99 4.34 2.98 4 4 C1.93359375 4.94921875 1.93359375 4.94921875 -0.5625 5.6875 C-1.38878906 5.93886719 -2.21507812 6.19023438 -3.06640625 6.44921875 C-3.70449219 6.63097656 -4.34257812 6.81273438 -5 7 C-5 6.34 -5 5.68 -5 5 C-4.01 4.34 -3.02 3.68 -2 3 C-1.34 2.01 -0.68 1.02 0 0 Z " fill="#BE5017" transform="translate(221,88)"/>
<path d="M0 0 C4.83290538 4.049191 6.3833652 7.96719209 8 14 C7.01 13.67 6.02 13.34 5 13 C5 12.01 5 11.02 5 10 C4.34 10 3.68 10 3 10 C2.67 9.01 2.34 8.02 2 7 C2.33 6.34 2.66 5.68 3 5 C2.01 4.67 1.02 4.34 0 4 C0 2.68 0 1.36 0 0 Z " fill="#CF601A" transform="translate(286,249)"/>
<path d="M0 0 C-0.42257276 1.4835001 -0.86356322 2.96176424 -1.3125 4.4375 C-1.55613281 5.26121094 -1.79976563 6.08492188 -2.05078125 6.93359375 C-2.36402344 7.61550781 -2.67726563 8.29742187 -3 9 C-3.99 9.33 -4.98 9.66 -6 10 C-6.33663062 6.29706315 -6.47736015 4.60465619 -4.125 1.625 C-2 0 -2 0 0 0 Z " fill="#C5591B" transform="translate(307,318)"/>
<path d="M0 0 C-2.09836004 1.03271642 -4.20390891 2.05083717 -6.3125 3.0625 C-7.48425781 3.63097656 -8.65601563 4.19945313 -9.86328125 4.78515625 C-13 6 -13 6 -16 5 C-12.93882432 2.37613513 -12.26826873 2 -8 2 C-8 1.34 -8 0.68 -8 0 C-4.90645403 -0.99435406 -3.09720845 -0.87840996 0 0 Z " fill="#8E340F" transform="translate(210,99)"/>
<path d="M0 0 C0.33 0.66 0.66 1.32 1 2 C0.34 2 -0.32 2 -1 2 C-1 2.66 -1 3.32 -1 4 C-6.41176471 8 -6.41176471 8 -9 8 C-9 7.01 -9 6.02 -9 5 C-6.04920467 2.77051019 -3.51420376 1.17140125 0 0 Z " fill="#B44F18" transform="translate(345,376)"/>
<path d="M0 0 C4.67239145 2.13206212 8.59287819 4.02502456 12 8 C7.24518354 7.42365861 4.02951788 5.44931479 0 3 C0 2.01 0 1.02 0 0 Z " fill="#8C3E10" transform="translate(209,372)"/>
<path d="M0 0 C3.32104626 0.55350771 6.16244492 1.14091219 9 3 C10.25 5.125 10.25 5.125 11 7 C6.00724943 5.72278474 3.42388092 3.82669043 0 0 Z " fill="#A94B15" transform="translate(350,114)"/>
<path d="M0 0 C-1.39332574 3.36720387 -2.9789286 4.9859524 -6 7 C-6.33 6.34 -6.66 5.68 -7 5 C-9.02463255 4.34786708 -9.02463255 4.34786708 -11 4 C-9.5437455 3.32880451 -8.08492133 2.66318193 -6.625 2 C-5.81289062 1.62875 -5.00078125 1.2575 -4.1640625 0.875 C-2 0 -2 0 0 0 Z " fill="#B85D1E" transform="translate(143,102)"/>
<path d="M0 0 C6.15234375 0.5859375 6.15234375 0.5859375 8 1 C8.33 1.66 8.66 2.32 9 3 C9.99 3.66 10.98 4.32 12 5 C6.72209903 5.50265724 4.13774748 4.25108731 0 1 C0 0.67 0 0.34 0 0 Z " fill="#AE5319" transform="translate(216,405)"/>
<path d="M0 0 C0.99 0.33 1.98 0.66 3 1 C1.93277615 3.91061051 1.36086255 4.82859029 -1.5 6.1875 C-2.325 6.455625 -3.15 6.72375 -4 7 C-4.99 7.495 -4.99 7.495 -6 8 C-4.55746343 4.63408134 -2.66735273 2.48952921 0 0 Z " fill="#F47A2E" transform="translate(360,337)"/>
<path d="M0 0 C0.66 0 1.32 0 2 0 C0.125 5.75 0.125 5.75 -1 8 C-1.66 8 -2.32 8 -3 8 C-3 9.65 -3 11.3 -3 13 C-3.99 13 -4.98 13 -6 13 C-4.58707905 8.1725201 -2.57025846 4.2837641 0 0 Z " fill="#914917" transform="translate(260,245)"/>
<path d="M0 0 C-1.01454452 2.5363613 -1.6853556 3.79351461 -4 5.3125 C-4.66 5.539375 -5.32 5.76625 -6 6 C-6.66 5.67 -7.32 5.34 -8 5 C-8 4.01 -8 3.02 -8 2 C-2.25 0 -2.25 0 0 0 Z " fill="#F37D27" transform="translate(242,59)"/>
<path d="M0 0 C4.8 3.44615385 4.8 3.44615385 5.8125 6.25 C5.874375 6.8275 5.93625 7.405 6 8 C2.06326356 6.68775452 -0.22719294 5.08089673 -3 2 C-2.01 2 -1.02 2 0 2 C0 1.34 0 0.68 0 0 Z " fill="#B0551A" transform="translate(203,393)"/>
<path d="M0 0 C0.66 0 1.32 0 2 0 C0.44298069 4.67105792 -2.08447373 8.08705685 -5 12 C-5.33 11.34 -5.66 10.68 -6 10 C-5.67 9.01 -5.34 8.02 -5 7 C-4.34 7 -3.68 7 -3 7 C-3 5.35 -3 3.7 -3 2 C-2.01 2 -1.02 2 0 2 C0 1.34 0 0.68 0 0 Z " fill="#AD4A17" transform="translate(391,324)"/>
<path d="M0 0 C2.475 0.495 2.475 0.495 5 1 C5.66 3.31 6.32 5.62 7 8 C6.01 8 5.02 8 4 8 C2.68 5.36 1.36 2.72 0 0 Z " fill="#B55A1D" transform="translate(120,314)"/>
<path d="M0 0 C1.37562854 1.28965176 2.70766393 2.62689293 4 4 C4 4.66 4 5.32 4 6 C4.66 6 5.32 6 6 6 C6 8.31 6 10.62 6 13 C2.57068046 9.2440786 1.43570917 4.76533255 0 0 Z " fill="#A35014" transform="translate(114,300)"/>
<path d="M0 0 C1 3 1 3 0.00390625 5.48046875 C-0.47175781 6.37378906 -0.94742188 7.26710938 -1.4375 8.1875 C-1.91058594 9.08855469 -2.38367188 9.98960937 -2.87109375 10.91796875 C-3.24363281 11.60503906 -3.61617187 12.29210937 -4 13 C-4.33 13 -4.66 13 -5 13 C-5.83861979 7.63283335 -2.92070405 4.20372761 0 0 Z " fill="#90370E" transform="translate(205,275)"/>
<path d="M0 0 C1.32 0.66 2.64 1.32 4 2 C4 2.66 4 3.32 4 4 C6.475 4.99 6.475 4.99 9 6 C8.01 6.66 7.02 7.32 6 8 C6 7.34 6 6.68 6 6 C5.21625 5.896875 4.4325 5.79375 3.625 5.6875 C1 5 1 5 -1 2 C-0.67 1.34 -0.34 0.68 0 0 Z " fill="#8E4414" transform="translate(200,365)"/>
<path d="M0 0 C2.97 0.495 2.97 0.495 6 1 C6 1.66 6 2.32 6 3 C6.66 3 7.32 3 8 3 C8.33 4.65 8.66 6.3 9 8 C7.68388323 7.04663979 6.37221039 6.08714226 5.0625 5.125 C4.33160156 4.59132813 3.60070312 4.05765625 2.84765625 3.5078125 C1 2 1 2 0 0 Z " fill="#A5561F" transform="translate(157,362)"/>
<path d="M0 0 C0.66 0.33 1.32 0.66 2 1 C-0.97 3.475 -0.97 3.475 -4 6 C-3.67 4.35 -3.34 2.7 -3 1 C-2.01 0.67 -1.02 0.34 0 0 Z M-7 6 C-6.01 6.33 -5.02 6.66 -4 7 C-4.33 7.99 -4.66 8.98 -5 10 C-5.99 9.67 -6.98 9.34 -8 9 C-7.67 8.01 -7.34 7.02 -7 6 Z " fill="#F8832A" transform="translate(333,358)"/>
<path d="M0 0 C0.33 0 0.66 0 1 0 C1.56561146 5.65611463 -0.28608722 9.22642128 -3 14 C-4.37095624 10.30962722 -3.60010967 8.29116165 -2.0625 4.75 C-1.68222656 3.85796875 -1.30195313 2.9659375 -0.91015625 2.046875 C-0.60980469 1.37140625 -0.30945313 0.6959375 0 0 Z " fill="#E56819" transform="translate(203,272)"/>
<path d="M0 0 C0.66 0.33 1.32 0.66 2 1 C-0.66892697 4.45390549 -3.84151743 5.12452998 -8 6 C-10.22265625 5.546875 -10.22265625 5.546875 -12 5 C-10.04578965 4.13644222 -8.08648653 3.28440066 -6.125 2.4375 C-5.03445312 1.96183594 -3.94390625 1.48617187 -2.8203125 0.99609375 C-1.88960937 0.66738281 -0.95890625 0.33867188 0 0 Z " fill="#9D511E" transform="translate(130,107)"/>
<path d="M0 0 C0 0.99 0 1.98 0 3 C-6.625 6.125 -6.625 6.125 -10 5 C-3.71428571 0.57142857 -3.71428571 0.57142857 0 0 Z " fill="#B96024" transform="translate(301,380)"/>
<path d="M0 0 C5.99725275 2.10714286 5.99725275 2.10714286 8 5 C7.5703125 7.1015625 7.5703125 7.1015625 7 9 C5.83037314 7.69013727 4.66437056 6.3770374 3.5 5.0625 C2.8503125 4.33160156 2.200625 3.60070312 1.53125 2.84765625 C0 1 0 1 0 0 Z " fill="#904C1B" transform="translate(140,343)"/>
<path d="M0 0 C3.29078593 2.79716804 5.06305458 6.19528578 7 10 C6.67 10.66 6.34 11.32 6 12 C2.46804227 9.64536151 1.62378295 7.86614989 0 4 C0 2.68 0 1.36 0 0 Z " fill="#D26921" transform="translate(300,273)"/>
<path d="M0 0 C0.66 0 1.32 0 2 0 C1.34 2.97 0.68 5.94 0 9 C-0.66 8.67 -1.32 8.34 -2 8 C-2.66 8 -3.32 8 -4 8 C-2.87548273 5.0280615 -1.77706209 2.66559313 0 0 Z " fill="#F77E26" transform="translate(182,191)"/>
<path d="M0 0 C4.23429756 1.31061591 8.07407404 2.94356259 12 5 C10.3125 6.1875 10.3125 6.1875 8 7 C4.80354723 5.51871701 2.30267795 3.66625868 0 1 C0 0.67 0 0.34 0 0 Z " fill="#8A4617" transform="translate(357,92)"/>
<path d="M0 0 C-2.64 1.98 -5.28 3.96 -8 6 C-8.66 5.67 -9.32 5.34 -10 5 C-10 4.01 -10 3.02 -10 2 C-8.71211992 1.46987262 -7.41953322 0.9511671 -6.125 0.4375 C-5.40570313 0.14746094 -4.68640625 -0.14257812 -3.9453125 -0.44140625 C-2 -1 -2 -1 0 0 Z " fill="#B14212" transform="translate(331,389)"/>
<path d="M0 0 C0.33 0 0.66 0 1 0 C1.33951619 1.56116819 1.67132544 3.12401338 2 4.6875 C2.185625 5.55761719 2.37125 6.42773438 2.5625 7.32421875 C2.98972047 9.93712964 3.07616201 12.35813038 3 15 C0.03090402 11.72698081 -0.34354794 9.61934238 -0.1875 5.25 C-0.16042969 4.26515625 -0.13335937 3.2803125 -0.10546875 2.265625 C-0.07066406 1.51796875 -0.03585938 0.7703125 0 0 Z " fill="#C46514" transform="translate(107,270)"/>
<path d="M0 0 C2.97 0.99 5.94 1.98 9 3 C5 5 5 5 2.75 4.625 C2.1725 4.41875 1.595 4.2125 1 4 C0.67 2.68 0.34 1.36 0 0 Z " fill="#9F4B15" transform="translate(348,88)"/>
<path d="M0 0 C1.32 0.66 2.64 1.32 4 2 C2.35 3.65 0.7 5.3 -1 7 C-1.625 4.625 -1.625 4.625 -2 2 C-1.34 1.34 -0.68 0.68 0 0 Z " fill="#BE5416" transform="translate(380,336)"/>
<path d="M0 0 C0.99 0.33 1.98 0.66 3 1 C3 3.31 3 5.62 3 8 C2.01 7.67 1.02 7.34 0 7 C0 4.69 0 2.38 0 0 Z " fill="#894114" transform="translate(126,256)"/>
<path d="M0 0 C1.98 0 3.96 0 6 0 C6 1.65 6 3.3 6 5 C5.01 5 4.02 5 3 5 C1.3125 2.5 1.3125 2.5 0 0 Z " fill="#B15B19" transform="translate(135,337)"/>
<path d="M0 0 C1.670625 0.061875 1.670625 0.061875 3.375 0.125 C3.375 0.785 3.375 1.445 3.375 2.125 C1.725 2.125 0.075 2.125 -1.625 2.125 C-1.625 2.785 -1.625 3.445 -1.625 4.125 C-2.945 3.465 -4.265 2.805 -5.625 2.125 C-3.625 0.125 -3.625 0.125 0 0 Z " fill="#F78128" transform="translate(204.625,171.875)"/>
<path d="M0 0 C3.55780196 0.60990891 6.6828589 1.5783681 10 3 C9.67 3.66 9.34 4.32 9 5 C2.25 3.375 2.25 3.375 0 0 Z " fill="#994C1A" transform="translate(382,130)"/>
<path d="M0 0 C0.33 0.66 0.66 1.32 1 2 C-1.3125 3.5625 -1.3125 3.5625 -4 5 C-4.99 4.67 -5.98 4.34 -7 4 C-7 4.66 -7 5.32 -7 6 C-8.65 6 -10.3 6 -12 6 C-8.37464179 2.82781157 -4.48849722 1.57097403 0 0 Z " fill="#EA7F30" transform="translate(199,77)"/>
<path d="M0 0 C2.875 0.1875 2.875 0.1875 6 1 C7.375 3.5625 7.375 3.5625 8 6 C4.63408134 4.55746343 2.48952921 2.66735273 0 0 Z " fill="#974E18" transform="translate(246,329)"/>
<path d="M0 0 C0.97608217 2.92824652 1.08226668 4.95613276 1 8 C0.01 7.67 -0.98 7.34 -2 7 C-2 5.02 -2 3.04 -2 1 C-1.34 0.67 -0.68 0.34 0 0 Z " fill="#F57318" transform="translate(253,266)"/>
<path d="M0 0 C0.66 0.33 1.32 0.66 2 1 C0 4 0 4 -2.625 4.6875 C-3.800625 4.8421875 -3.800625 4.8421875 -5 5 C-5 4.01 -5 3.02 -5 2 C-2.625 0.9375 -2.625 0.9375 0 0 Z " fill="#F07D2F" transform="translate(136,106)"/>
<path d="M0 0 C1.32 0.33 2.64 0.66 4 1 C1.93243723 3.7972908 0.85559629 4.02692273 -2.6875 4.6875 C-3.780625 4.790625 -4.87375 4.89375 -6 5 C-5.34 4.01 -4.68 3.02 -4 2 C-2.68 2 -1.36 2 0 2 C0 1.34 0 0.68 0 0 Z " fill="#F78026" transform="translate(277,395)"/>
<path d="M0 0 C0.66 0.33 1.32 0.66 2 1 C1.67 1.99 1.34 2.98 1 4 C1.38932856 6.14255793 1.38932856 6.14255793 2 8 C1.01 7.67 0.02 7.34 -1 7 C-1.625 4.625 -1.625 4.625 -2 2 C-1.34 1.34 -0.68 0.68 0 0 Z " fill="#CD681F" transform="translate(362,326)"/>
<path d="M0 0 C2.64 0 5.28 0 8 0 C5.3144406 2.6855594 2.62378672 3.06049974 -1 4 C-0.67 2.68 -0.34 1.36 0 0 Z " fill="#A44011" transform="translate(164,115)"/>
<path d="M0 0 C0.99 0.495 0.99 0.495 2 1 C2 1.66 2 2.32 2 3 C2.61875 3.268125 3.2375 3.53625 3.875 3.8125 C6 5 6 5 8 8 C6.0625 7.6875 6.0625 7.6875 4 7 C3.67 6.01 3.34 5.02 3 4 C2.34 4 1.68 4 1 4 C0.67 2.68 0.34 1.36 0 0 Z " fill="#7B3611" transform="translate(165,335)"/>
<path d="M0 0 C0.33 1.32 0.66 2.64 1 4 C2.65 4 4.3 4 6 4 C6 4.33 6 4.66 6 5 C-0.75 5.125 -0.75 5.125 -3 4 C-3 3.34 -3 2.68 -3 2 C-2.01 1.34 -1.02 0.68 0 0 Z " fill="#EF7D2B" transform="translate(369,200)"/>
<path d="M0 0 C0.33 0.99 0.66 1.98 1 3 C-0.65 4.65 -2.3 6.3 -4 8 C-4 4.09161134 -2.49432124 2.88405893 0 0 Z " fill="#884814" transform="translate(184,183)"/>
<path d="M0 0 C1.32 0.33 2.64 0.66 4 1 C3.01 2.485 3.01 2.485 2 4 C1.60612212 6.32387947 1.26513915 8.65793749 1 11 C0.67 11 0.34 11 0 11 C0 7.37 0 3.74 0 0 Z " fill="#E96E1A" transform="translate(360,171)"/>
<path d="M0 0 C-2.35968744 2.09749995 -3.54616994 2.96905704 -6.75 3.1875 C-7.86375 3.0946875 -7.86375 3.0946875 -9 3 C-9 2.34 -9 1.68 -9 1 C-5.57367167 -0.61798838 -3.61944899 -1.34053666 0 0 Z " fill="#F6802B" transform="translate(172,92)"/>
<path d="M0 0 C5.53846154 0.61538462 5.53846154 0.61538462 7.875 2.5625 C8.431875 3.2740625 8.431875 3.2740625 9 4 C5.30581799 4 3.22163822 2.71820705 0 1 C0 0.67 0 0.34 0 0 Z " fill="#924311" transform="translate(224,410)"/>
<path d="M0 0 C2.35953094 2.35953094 2.49141413 3.77895617 3 7 C1.68 6.34 0.36 5.68 -1 5 C-0.67 3.35 -0.34 1.7 0 0 Z " fill="#CD6E1F" transform="translate(245,322)"/>
<path d="M0 0 C0.99 0 1.98 0 3 0 C2.67 1.32 2.34 2.64 2 4 C0.68 4.33 -0.64 4.66 -2 5 C-1.34 3.35 -0.68 1.7 0 0 Z " fill="#C26822" transform="translate(374,308)"/>
<path d="M0 0 C2.52259061 1.97420135 2.9929808 2.96745642 3.6875 6.1875 C3.790625 7.115625 3.89375 8.04375 4 9 C0 4.5 0 4.5 0 0 Z " fill="#863A15" transform="translate(291,254)"/>
<path d="M0 0 C0.99 0.33 1.98 0.66 3 1 C2.25 2.9375 2.25 2.9375 1 5 C-1.125 5.75 -1.125 5.75 -3 6 C-1.125 1.125 -1.125 1.125 0 0 Z " fill="#A0531A" transform="translate(269,233)"/>
<path d="M0 0 C1.65 0 3.3 0 5 0 C3.625 2.5 3.625 2.5 2 5 C1.34 5 0.68 5 0 5 C0 3.35 0 1.7 0 0 Z " fill="#F67917" transform="translate(106,229)"/>
<path d="M0 0 C0.33 0 0.66 0 1 0 C0.67 2.31 0.34 4.62 0 7 C-0.99 7 -1.98 7 -3 7 C-1.125 1.125 -1.125 1.125 0 0 Z " fill="#A14F14" transform="translate(178,192)"/>
<path d="M0 0 C1.32 0 2.64 0 4 0 C4 0.66 4 1.32 4 2 C4.66 2.33 5.32 2.66 6 3 C2.25 4.125 2.25 4.125 0 3 C0 2.01 0 1.02 0 0 Z " fill="#F9761A" transform="translate(339,106)"/>
<path d="" fill="#000000" transform="translate(0,0)"/>
<path d="" fill="#000000" transform="translate(0,0)"/>
<path d="" fill="#000000" transform="translate(0,0)"/>
<path d="" fill="#000000" transform="translate(0,0)"/>
<path d="" fill="#000000" transform="translate(0,0)"/>
<path d="" fill="#000000" transform="translate(0,0)"/>
<path d="" fill="#000000" transform="translate(0,0)"/>
<path d="" fill="#000000" transform="translate(0,0)"/>
<path d="" fill="#000000" transform="translate(0,0)"/>
<path d="" fill="#000000" transform="translate(0,0)"/>
<path d="" fill="#000000" transform="translate(0,0)"/>
<path d="" fill="#000000" transform="translate(0,0)"/>
<path d="" fill="#000000" transform="translate(0,0)"/>
<path d="" fill="#000000" transform="translate(0,0)"/>
<path d="" fill="#000000" transform="translate(0,0)"/>
<path d="" fill="#000000" transform="translate(0,0)"/>
<path d="" fill="#000000" transform="translate(0,0)"/>
<path d="" fill="#000000" transform="translate(0,0)"/>
<path d="" fill="#000000" transform="translate(0,0)"/>
<path d="" fill="#000000" transform="translate(0,0)"/>
<path d="" fill="#000000" transform="translate(0,0)"/>
<path d="" fill="#000000" transform="translate(0,0)"/>
<path d="" fill="#000000" transform="translate(0,0)"/>
<path d="" fill="#000000" transform="translate(0,0)"/>
<path d="" fill="#000000" transform="translate(0,0)"/>
<path d="" fill="#000000" transform="translate(0,0)"/>
<path d="" fill="#000000" transform="translate(0,0)"/>
<path d="" fill="#000000" transform="translate(0,0)"/>
<path d="" fill="#000000" transform="translate(0,0)"/>
<path d="" fill="#000000" transform="translate(0,0)"/>
<path d="" fill="#000000" transform="translate(0,0)"/>
<path d="" fill="#000000" transform="translate(0,0)"/>
<path d="" fill="#000000" transform="translate(0,0)"/>
<path d="" fill="#000000" transform="translate(0,0)"/>
<path d="" fill="#000000" transform="translate(0,0)"/>
<path d="" fill="#000000" transform="translate(0,0)"/>
<path d="" fill="#000000" transform="translate(0,0)"/>
<path d="" fill="#000000" transform="translate(0,0)"/>
<path d="" fill="#000000" transform="translate(0,0)"/>
<path d="" fill="#000000" transform="translate(0,0)"/>
<path d="" fill="#000000" transform="translate(0,0)"/>
<path d="" fill="#000000" transform="translate(0,0)"/>
<path d="" fill="#000000" transform="translate(0,0)"/>
<path d="" fill="#000000" transform="translate(0,0)"/>
<path d="" fill="#000000" transform="translate(0,0)"/>
<path d="" fill="#000000" transform="translate(0,0)"/>
<path d="" fill="#000000" transform="translate(0,0)"/>
<path d="" fill="#000000" transform="translate(0,0)"/>
<path d="" fill="#000000" transform="translate(0,0)"/>
<path d="" fill="#000000" transform="translate(0,0)"/>
<path d="" fill="#000000" transform="translate(0,0)"/>
<path d="" fill="#000000" transform="translate(0,0)"/>
<path d="" fill="#000000" transform="translate(0,0)"/>
<path d="" fill="#000000" transform="translate(0,0)"/>
<path d="" fill="#000000" transform="translate(0,0)"/>
<path d="" fill="#000000" transform="translate(0,0)"/>
</svg>
